<?xml version="1.0" encoding="utf-8"?>
<!-- Generator: Adobe Illustrator 24.3.0, SVG Export Plug-In . SVG Version: 6.00 Build 0)  -->
<svg version="1.1" id="Calque_1" xmlns="http://www.w3.org/2000/svg" xmlns:xlink="http://www.w3.org/1999/xlink" x="0px" y="0px"
	 viewBox="0 0 204.7 38" style="enable-background:new 0 0 204.7 38;" xml:space="preserve">
<style type="text/css">
	.st0{fill:#FFFFFF;}
	.st1{fill:#E30613;}
</style>
<polygon class="st0" points="37.4,0.3 36.9,4.1 39,4.1 30.3,26.5 26.8,0.3 23.4,0.3 13.3,26.5 10.3,4.1 12.9,4.1 13.4,0.3 0.8,0.3 
	0.4,4.1 3.5,4.1 8.1,37.6 12.8,37.6 21.8,15.9 25.1,37.6 29.8,37.6 43.7,4.1 46.2,4.1 46.7,0.3 "/>
<polygon class="st0" points="97.5,33.3 100.8,10.5 98.7,10.5 99.1,7.7 104.1,7.7 113.7,25.6 115.8,10.5 113.8,10.5 114.2,7.7 
	121.6,7.7 121.2,10.5 119.2,10.5 115.6,36.1 112.7,36.1 103,18.1 100.9,33.3 102.9,33.3 102.5,36.1 95.1,36.1 95.5,33.3 "/>
<path class="st0" d="M138.3,4l-1.8,12.6h2.1c1.6,0,3.2-0.7,4.6-2c1.4-1.3,2.3-2.9,2.5-4.6c0-0.2,0.1-0.4,0.1-0.8
	c0-1.4-0.5-2.7-1.6-3.7c-1-1-2.3-1.6-3.8-1.6L138.3,4L138.3,4z M124,36.1l0.5-3.6h2.6L131.2,4h-4.1l0.5-3.6h13.3
	c3.4,0,6.2,0.7,8.5,2.1c2.6,1.5,3.9,3.7,3.9,6.4v0.6c-0.1,0.3-0.1,0.5-0.1,0.7c-0.3,2.4-1.3,4.4-3,5.9c-1.6,1.5-3.7,2.6-6.3,3.3
	l5.4,12.6c0.2,0.4,0.7,0.7,1.3,0.7c0.3,0,0.6-0.1,0.8-0.2c0.5-0.3,0.8-0.7,0.9-1.3l0.3-1.8h2.4l-0.3,1.8c-0.3,1.8-1.2,3.4-2.6,4.7
	c-1.5,1.3-3.2,2-5,2c-1.3,0-2.4-0.3-3.4-1s-1.6-1.5-1.9-2.3L136,19.7l-2.3,16.4H124z"/>
<path class="st1" d="M58.8,12.6c1.3,3.6,0.1,6,0.1,6s-3.1-2.1-2.5-7.2c0.6-5.1-1.7-7.1-1.7-7.1c0.5,2.6-1.4,4.1-1.4,4.1
	C54.9,2.6,50,0.3,50,0.3s0.7,1,1.4,3.7c0.5,2.7-1.6,5.8-2.9,9.1c-1.3,3.2-1.1,8.4-1.1,8.4c-1.6-1.1-1.6-7.9-1.9-5.4
	c-0.9,6.7,2.8,11.5,2.8,11.5s0,0,0,0c3.9-0.7,8.4-1.6,12-2.3C65.3,17.4,58.8,12.6,58.8,12.6z"/>
<path d="M66.6,24.1c0.1,0,0.3-0.1,0.4-0.1C66.9,24,66.7,24.1,66.6,24.1z"/>
<path d="M67.6,23.9c0.2,0,0.3-0.1,0.5-0.1C67.9,23.8,67.8,23.8,67.6,23.9z"/>
<path class="st1" d="M178.9,0.6c0,0,2-0.4,2.1,1.7c0.2,2.1,1.3,34.5,1.3,34.5s0.2,0.8-0.8,0.9c-1,0.1-1-0.3-1.1-0.8L177,2.5
	C177,2.5,176.7,0.7,178.9,0.6"/>
<path class="st1" d="M187,0.4c0,0,2-0.1,1.9,2s-3.6,34.4-3.6,34.4s0.1,0.8-0.9,0.7s-1-0.5-1-0.9L184.9,2C184.9,2,184.9,0.1,187,0.4"
	/>
<path class="st0" d="M90.1,13.7C89.6,13.2,89,13,88.3,13c-0.9,0-1.7,0.3-2.5,0.9c-0.5,0.4-1.2,1.1-2,2.1L77,24.4l1.6-11.1h-6.1
	l-0.3,2.3h1.6l-0.6,4.5l-6.8,4c-1.1,0.2-3.3,0.7-6.1,1.2c-3.6,0.7-8.2,1.6-12,2.3c-4.6,0.9-8.3,1.6-8.3,1.6s2.6,8.5,15.3,6.8
	c12.8-1.7,12.8-11.9,12.8-11.9l4.9-2.7l-1.7,12.3h-1.6L69.4,36h6l1.5-11l3.7,9.6c0.2,0.6,0.6,1.1,1.2,1.5c0.5,0.4,1.3,0.6,2.1,0.6
	c1.1,0,2.2-0.4,3.1-1.2c1-0.9,1.5-1.8,1.7-3l0.2-1.1h-1.5l-0.2,1.1c0,0.4-0.2,0.6-0.5,0.8c-0.1,0.1-0.3,0.1-0.5,0.1
	c-0.4,0-0.6-0.2-0.8-0.7L81.2,23l4.3-5.3c0.5,0.6,1.1,0.9,2,0.9c0.9,0,1.6-0.2,2.2-0.8c0.6-0.5,1-1.2,1.1-2c0-0.1,0-0.2,0-0.4
	C90.8,14.8,90.6,14.2,90.1,13.7z"/>
<path class="st0" d="M169.1,15.8c-1.4,0-2.7,0.9-3.9,2.6c-1.2,1.7-2,3.8-2.3,6.3c-0.1,0.9-0.2,1.6-0.2,2.3c0,1.9,0.4,3.5,1.1,4.8
	c0.7,1.3,1.6,1.9,2.8,1.9c1.4,0,2.7-0.9,3.9-2.6c1.2-1.7,2-3.9,2.3-6.3c0.1-0.9,0.2-1.6,0.2-2.3c0-1.9-0.4-3.5-1.1-4.7
	C171.3,16.5,170.3,15.8,169.1,15.8 M175.4,24.8c-0.4,3-1.5,5.7-3.4,8c-2,2.6-4.2,3.9-6.7,3.9s-4.4-0.9-5.8-2.7
	c-1.3-1.7-1.9-3.9-1.9-6.6c0-0.8,0.1-1.7,0.2-2.5c0.5-3.3,1.6-6.1,3.5-8.3c2-2.4,4.5-3.6,7.3-3.6c2.1,0,3.9,1,5.1,2.9
	c1.2,1.8,1.8,4,1.8,6.7C175.6,23.2,175.6,23.9,175.4,24.8"/>
<path class="st0" d="M200.2,15.7c-0.3-0.1-0.4-0.2-0.5-0.3c-0.3-0.1-0.7-0.2-1.3-0.2c-0.8,0-1.5,0.2-2.2,0.7
	c-0.7,0.5-1.1,1.1-1.2,1.9c-0.1,0.5,0,0.9,0.3,1.3s0.7,0.9,1.2,1.3l5.1,4.2c0.9,0.7,1.5,1.3,1.8,1.9c0.5,0.8,0.7,1.6,0.7,2.5
	c0,0.4,0,0.7-0.1,0.9c-0.3,2.1-1.3,3.8-3,4.9c-1.5,1-3.4,1.5-5.7,1.5c-1.8,0-3.4-0.6-4.6-1.8c-1.1-1.1-1.6-2.2-1.6-3.6
	c0-0.2,0-0.4,0-0.5c0.1-0.8,0.5-1.5,1.1-2.2c0.7-0.7,1.4-1,2.2-1c0.7,0,1.3,0.2,1.8,0.7s0.7,1.1,0.7,1.7c0,0.2,0,0.3,0,0.4
	c-0.1,0.6-0.3,1.1-0.8,1.6c-0.4,0.5-0.9,0.9-1.5,1.1c0.6,0.8,1.6,1.1,3.1,1.1c0.9,0,1.7-0.3,2.4-0.8s1.2-1.2,1.3-2
	c0-0.1,0-0.3,0-0.5c0-1.2-0.5-2.2-1.6-2.9l-4.5-3.6c-0.9-0.8-1.6-1.4-2-1.9c-0.6-0.8-0.9-1.7-0.9-2.7c0-0.1,0-0.3,0-0.4
	c0-0.2,0-0.3,0-0.4c0.3-1.9,1.3-3.4,2.9-4.4c1.5-1,3.3-1.4,5.3-1.4c1.4,0,2.5,0.3,3.6,1c1.2,0.8,1.8,1.8,1.8,3.1c0,0.3,0,0.5,0,0.6
	c-0.1,0.7-0.4,1.3-1,1.8s-1.2,0.8-1.9,0.8c-0.6,0-1.2-0.2-1.6-0.6c-0.4-0.4-0.6-1-0.6-1.6c0-0.1,0-0.3,0-0.4
	C199.1,16.8,199.5,16.1,200.2,15.7"/>
</svg>
