<?xml version="1.0" standalone="no"?>
<!DOCTYPE svg PUBLIC "-//W3C//DTD SVG 1.1//EN" "http://www.w3.org/Graphics/SVG/1.1/DTD/svg11.dtd" >
<svg xmlns="http://www.w3.org/2000/svg" xmlns:xlink="http://www.w3.org/1999/xlink" version="1.1">
<metadata></metadata>
<defs>
<font id="outfitregular" horiz-adv-x="1191" >
<font-face units-per-em="2048" ascent="1638" descent="-410" />
<missing-glyph horiz-adv-x="425" />
<glyph unicode="&#xfb01;" horiz-adv-x="1173" d="M35 805v168h239v176q0 96 42 171t118 119t174 44q74 0 132.5 -25.5t107.5 -71.5l-121 -120q-49 45 -119 45q-72 0 -110.5 -44t-38.5 -118v-176h579v-973h-186v805h-393v-805h-185v805h-239zM829 1194q0 49 33 83t82 34q51 0 84 -34t33 -83q0 -51 -33 -85t-84 -34 q-49 0 -82 34t-33 85z" />
<glyph unicode="&#xfb02;" horiz-adv-x="1173" d="M35 805v168h239v131q0 102 47.5 188t135.5 138.5t207 52.5v-172q-100 0 -152.5 -60.5t-52.5 -146.5v-131h395v497h184v-1470h-184v805h-395v-805h-185v805h-239z" />
<glyph horiz-adv-x="0" />
<glyph horiz-adv-x="682" />
<glyph unicode=" "  horiz-adv-x="425" />
<glyph unicode="&#x09;" horiz-adv-x="425" />
<glyph unicode="&#xa0;" horiz-adv-x="425" />
<glyph unicode="!" horiz-adv-x="534" d="M129 115q0 55 37 94t94 39q59 0 96 -39t37 -94q0 -57 -37 -96t-96 -39q-57 0 -94 38.5t-37 96.5zM164 1462h196l-26 -1011h-144z" />
<glyph unicode="&#x22;" horiz-adv-x="819" d="M141 1462h203l-43 -499h-117zM475 1462h205l-45 -499h-117z" />
<glyph unicode="#" horiz-adv-x="1310" d="M98 438v150h234l41 274h-211v150h233l64 409h157l-63 -409h281l63 409h158l-64 -409h219v-150h-241l-41 -274h219v-150h-242l-67 -438h-158l68 438h-283l-66 -438h-157l65 438h-209zM489 588h281l41 274h-281z" />
<glyph unicode="$" horiz-adv-x="1204" d="M117 219l129 129q61 -86 138 -137t181 -59v497q-68 25 -134 54.5t-120.5 73.5t-87.5 112.5t-33 169.5q2 162 106.5 261t268.5 118v188h135v-188q106 -12 195.5 -64.5t151.5 -128.5l-129 -129q-49 57 -102.5 95t-115.5 53v-457q90 -33 176.5 -80t140.5 -128t54 -218 q0 -164 -98.5 -266.5t-272.5 -126.5v-193h-135v185q-145 6 -253.5 66t-194.5 173zM377 1071q0 -86 54 -133t134 -80v410q-90 -14 -139 -63.5t-49 -133.5zM700 162q82 18 130.5 71.5t48.5 133.5q0 92 -51.5 143t-127.5 86v-434z" />
<glyph unicode="%" horiz-adv-x="1351" d="M102 1155q0 80 38 144.5t103.5 103.5t145.5 39q82 0 147.5 -39t104.5 -103.5t39 -144.5q0 -82 -39 -146.5t-104.5 -103.5t-147.5 -39q-80 0 -145.5 39t-103.5 103.5t-38 146.5zM127 0l911 1421h187l-912 -1421h-186zM254 1155q0 -63 38 -103t97 -40q61 0 100 40t39 103 t-39.5 102t-99.5 39q-59 0 -97 -38.5t-38 -102.5zM672 268q0 80 39 144.5t103.5 103.5t146.5 39q80 0 145 -39t105 -103.5t40 -144.5q0 -82 -38.5 -147.5t-104 -103t-147.5 -37.5q-80 0 -145.5 37.5t-104.5 103t-39 147.5zM823 268q0 -63 39.5 -103t98.5 -40q61 0 100 40 t39 103q0 61 -40 101.5t-99 40.5t-98.5 -40t-39.5 -102z" />
<glyph unicode="&#x26;" horiz-adv-x="1349" d="M119 410q0 121 62.5 221t180.5 164q-51 66 -75.5 130t-24.5 140q0 106 51.5 192t141.5 136.5t207 50.5q127 0 222 -59.5t150 -143.5l-133 -121q-47 66 -104.5 106t-134.5 40q-94 0 -155 -56.5t-61 -142.5q0 -74 31 -126t92 -118l756 -823h-225l-123 131 q-68 -68 -169 -109.5t-218 -41.5q-141 0 -247.5 55t-165 151.5t-58.5 223.5zM303 414q0 -121 82 -189.5t211 -70.5q86 2 150.5 30.5t109.5 75.5l-395 424q-74 -43 -116 -110.5t-42 -159.5z" />
<glyph unicode="'" horiz-adv-x="485" d="M141 1462h203l-43 -499h-117z" />
<glyph unicode="(" horiz-adv-x="620" d="M94 637q0 176 43 340t123 302t193 232l106 -96q-145 -127 -224 -328.5t-79 -449.5t79 -449.5t224 -328.5l-106 -97q-113 94 -193 232.5t-123 302.5t-43 340z" />
<glyph unicode=")" horiz-adv-x="618" d="M61 -141q145 127 223 328.5t78 449.5t-77.5 449.5t-223.5 328.5l107 96q113 -94 192.5 -232t122.5 -302t43 -340t-43 -340t-122.5 -302.5t-192.5 -232.5z" />
<glyph unicode="*" horiz-adv-x="1003" d="M100 1004l303 114l-249 199l120 121l203 -248l115 301l156 -78l-179 -270l328 -17l-27 -168l-317 84l86 -315l-172 -27l-16 326l-273 -176z" />
<glyph unicode="+" horiz-adv-x="1110" d="M121 602v166h350v373h170v-373h348v-166h-348v-373h-170v373h-350z" />
<glyph unicode="," horiz-adv-x="563" d="M145 -225l111 211q-39 6 -67.5 39.5t-28.5 83.5q0 57 39 98t98 41q53 0 94 -40t41 -99q0 -23 -9 -54.5t-36 -81.5l-135 -256z" />
<glyph unicode="-" horiz-adv-x="944" d="M135 434v174h674v-174h-674z" />
<glyph unicode="." horiz-adv-x="593" d="M164 115q0 57 37 95t96 38q57 0 95 -38t38 -95t-38 -96t-95 -39q-59 0 -96 38.5t-37 96.5z" />
<glyph unicode="/" horiz-adv-x="798" d="M29 -82l569 1583h172l-567 -1583h-174z" />
<glyph unicode="0" horiz-adv-x="1343" d="M96 713q0 223 77 387t208 253t291 89t290 -89t207.5 -253t77.5 -389q0 -223 -76.5 -387t-206.5 -254t-288 -90q-160 0 -292 90t-210 254.5t-78 388.5zM291 713q0 -272 106.5 -411.5t274.5 -139.5t274.5 139t106.5 412q0 268 -107.5 408.5t-273.5 140.5 q-168 0 -274.5 -139.5t-106.5 -409.5z" />
<glyph unicode="1" horiz-adv-x="710" d="M63 1249v172h482v-1421h-191v1249h-291z" />
<glyph unicode="2" horiz-adv-x="1107" d="M68 0v117l524 553q80 82 125 142t64.5 111.5t19.5 106.5q0 109 -69.5 170.5t-180.5 61.5q-109 0 -190.5 -52.5t-145.5 -160.5l-135 112q166 281 477 281q131 0 228.5 -51.5t150.5 -144.5t53 -214q0 -88 -21.5 -157.5t-75.5 -143.5t-151 -172l-374 -387h655v-172h-954z " />
<glyph unicode="3" horiz-adv-x="1101" d="M61 184l132 131q47 -72 128.5 -113.5t182.5 -41.5q139 0 225 78.5t86 210.5q0 131 -87 208.5t-234 77.5q-74 0 -146 -20v116l367 418h-586v172h864v-114l-391 -443h2q115 0 206 -54t145.5 -149.5t54.5 -222.5q0 -135 -64.5 -238.5t-177 -161.5t-262.5 -58 q-285 0 -445 204z" />
<glyph unicode="4" horiz-adv-x="1224" d="M68 371v118l518 932h217l-498 -878h457v397h190v-397h205v-172h-205v-371h-190v371h-694z" />
<glyph unicode="5" horiz-adv-x="1107" d="M57 184l131 131q47 -72 129 -113.5t187 -41.5q143 0 234 81t91 218q0 141 -89 217t-212 76q-84 0 -152.5 -21.5t-129.5 -68.5l-105 104l64 655h747v-172h-590l-40 -399q90 59 241 59q145 0 248.5 -61.5t158 -165.5t54.5 -233q0 -135 -66.5 -242t-183 -167t-266.5 -60 q-291 0 -451 204z" />
<glyph unicode="6" horiz-adv-x="1155" d="M82 467q0 188 131 375l418 579h223l-373 -510q57 25 142 25q123 0 226 -59.5t164.5 -164t61.5 -239.5q0 -137 -67.5 -248.5t-180 -178t-249.5 -66.5q-141 0 -253 65.5t-177.5 175t-65.5 246.5zM274 473q0 -88 40 -159.5t109 -112.5t155 -41t154.5 41t108.5 112.5 t40 159.5t-41 158.5t-109.5 111.5t-152.5 41q-86 0 -155 -41t-109 -111.5t-40 -158.5z" />
<glyph unicode="7" horiz-adv-x="1075" d="M63 1249v172h947v-118l-521 -1303h-202l508 1249h-732z" />
<glyph unicode="8" horiz-adv-x="1126" d="M86 393q0 125 64.5 222.5t179.5 146.5q-88 45 -133 127t-45 180q0 109 53 194t146 133t212 48t212 -48t146.5 -133t53.5 -194q0 -98 -45 -180t-133 -127q115 -49 179 -146.5t64 -222.5q0 -119 -60 -213t-167 -147t-250 -53t-249.5 53t-166 147t-61.5 213zM272 418 q0 -117 82 -190.5t209 -73.5t209 73.5t82 190.5q0 115 -82 188.5t-209 73.5t-209 -74t-82 -188zM332 1057q0 -100 64.5 -164t166.5 -64t168 63.5t66 164.5q0 98 -65.5 160.5t-168.5 62.5q-102 0 -166.5 -62.5t-64.5 -160.5z" />
<glyph unicode="9" horiz-adv-x="1155" d="M80 948q0 137 66.5 249t180 178.5t251.5 66.5q139 0 251.5 -65.5t178 -175t65.5 -247.5q0 -188 -131 -374l-418 -580h-223l375 510q-59 -25 -144 -25q-125 0 -227 59.5t-163.5 164t-61.5 239.5zM272 948q0 -88 41 -157.5t110 -111.5t155 -42t154.5 42t108.5 111.5 t40 157.5q0 90 -40 161t-108.5 112t-154.5 41t-155 -41t-110 -113t-41 -160z" />
<glyph unicode=":" horiz-adv-x="555" d="M143 115q0 57 37 95t96 38q57 0 95.5 -38t38.5 -95t-38.5 -96t-95.5 -39q-59 0 -96 38.5t-37 96.5zM143 754q0 55 37 94t96 39q57 0 95.5 -39t38.5 -94q0 -57 -38.5 -96.5t-95.5 -39.5q-59 0 -96 39t-37 97z" />
<glyph unicode=";" horiz-adv-x="550" d="M135 -225l111 211q-39 6 -67.5 39.5t-28.5 83.5q0 57 39.5 98t95.5 41q55 0 96 -40t41 -99q0 -23 -9.5 -54.5t-35.5 -81.5l-137 -256zM145 754q0 55 37 94t94 39q59 0 96.5 -39t37.5 -94q0 -57 -37.5 -96.5t-96.5 -39.5q-57 0 -94 39t-37 97z" />
<glyph unicode="&#x3c;" horiz-adv-x="1126" d="M113 621v133l870 389v-187l-637 -270l637 -270v-185z" />
<glyph unicode="=" horiz-adv-x="1110" d="M121 367v165h868v-165h-868zM121 838v166h868v-166h-868z" />
<glyph unicode="&#x3e;" horiz-adv-x="1126" d="M143 231v185l637 270l-637 270v187l871 -389v-133z" />
<glyph unicode="?" horiz-adv-x="1034" d="M82 1227q59 121 169.5 188.5t258.5 67.5q125 0 220 -50.5t149.5 -139.5t54.5 -206q0 -143 -85 -247.5t-228 -145.5l-13 -243h-159l-3 389l56 2q106 0 173.5 66.5t67.5 166.5t-65.5 164t-175.5 64q-98 0 -170 -50.5t-115 -138.5zM393 115q0 55 38 94t95 39q59 0 96 -39 t37 -94q0 -57 -37 -96t-96 -39q-57 0 -95 38.5t-38 96.5z" />
<glyph unicode="@" horiz-adv-x="1536" d="M109 483q0 141 52 264t144 214.5t215 142.5t266 51q188 0 333 -86t228 -235.5t83 -344.5q0 -174 -74 -290h-438v51q-62 -66 -181 -66q-80 0 -145.5 40t-104 107.5t-38.5 151.5t38.5 153t104 108.5t145.5 39.5q119 0 181 -65v53h133v-453h204q23 72 23 181q0 240 -130 375 t-360 135q-156 0 -272.5 -65.5t-182 -184.5t-65.5 -279t63.5 -276.5t176.5 -181t262 -64.5q213 0 346 119l103 -105q-184 -158 -445 -157q-141 0 -262 50t-211 140t-141 212t-51 265zM586 485q0 -78 44.5 -125t114.5 -47q74 0 118 47.5t44 124.5q0 78 -44 125t-118 47 q-68 0 -113.5 -48t-45.5 -124z" />
<glyph unicode="A" horiz-adv-x="1425" d="M63 0l582 1421h139l580 -1421h-209l-129 322h-631l-127 -322h-205zM463 489h498l-248 623z" />
<glyph unicode="B" horiz-adv-x="1275" d="M168 0v1421h532q137 0 231.5 -50t142.5 -132t48 -180q-2 -195 -172 -299q111 -53 172.5 -145.5t61.5 -213.5q0 -113 -55.5 -204t-160 -144t-251.5 -53h-549zM360 168h367q121 0 191.5 72.5t70.5 175.5q0 102 -69.5 175t-186.5 73h-373v-496zM360 831h345 q102 0 162.5 54.5t60.5 156.5t-64 156.5t-168 54.5h-336v-422z" />
<glyph unicode="C" horiz-adv-x="1409" d="M96 711q0 154 53.5 285.5t149.5 232t226 157t286 56.5q166 0 294 -57.5t226 -155.5l-133 -133q-68 76 -166 118.5t-221 42.5q-152 0 -267.5 -70.5t-182 -193.5t-66.5 -282q0 -160 66.5 -283t183.5 -193.5t266 -70.5q133 0 231.5 44t165.5 120l133 -131 q-98 -102 -230 -159.5t-298 -57.5q-156 0 -286 56t-227 156.5t-150.5 232.5t-53.5 286z" />
<glyph unicode="D" horiz-adv-x="1515" d="M168 0v1421h526q156 0 287 -53t229.5 -149.5t152.5 -226.5t54 -281q0 -152 -54 -281t-151.5 -226.5t-228.5 -150.5t-285 -53h-530zM360 176h330q156 0 275.5 68.5t186.5 189.5t67 279q0 156 -68 275.5t-186.5 188t-274.5 68.5h-330v-1069z" />
<glyph unicode="E" horiz-adv-x="1208" d="M168 0v1421h936v-176h-744v-434h687v-168h-687v-467h754v-176h-946z" />
<glyph unicode="F" horiz-adv-x="1159" d="M168 0v1421h907v-176h-715v-444h680v-176h-680v-625h-192z" />
<glyph unicode="G" horiz-adv-x="1583" d="M96 713q0 154 55.5 285.5t153.5 232t230.5 156t287.5 55.5q170 0 313.5 -66.5t239.5 -187.5l-133 -133q-68 98 -178.5 150t-241.5 52q-158 0 -276.5 -69.5t-185 -192.5t-66.5 -282q0 -162 66.5 -285t182 -192.5t261.5 -69.5q205 0 333 106.5t150 309.5h-491v176h696v-29 q0 -248 -87 -413.5t-241.5 -250.5t-353.5 -85q-150 0 -280 56t-227 156.5t-152.5 233.5t-55.5 287z" />
<glyph unicode="H" horiz-adv-x="1445" d="M168 0v1421h192v-598h725v598h193v-1421h-193v647h-725v-647h-192z" />
<glyph unicode="I" horiz-adv-x="528" d="M168 0v1421h192v-1421h-192z" />
<glyph unicode="J" horiz-adv-x="1013" d="M61 158l136 125q82 -119 227 -119q106 0 176 68.5t70 201.5v987h192v-977q0 -143 -56 -247.5t-153.5 -160.5t-222.5 -56q-121 0 -215 48t-154 130z" />
<glyph unicode="K" horiz-adv-x="1363" d="M168 0v1421h192v-651l672 651h250l-704 -678l725 -743h-256l-687 711v-711h-192z" />
<glyph unicode="L" horiz-adv-x="1130" d="M168 0v1421h192v-1245h701v-176h-893z" />
<glyph unicode="M" horiz-adv-x="1718" d="M168 0v1421h135l557 -915l555 915h135v-1421h-192v999l-430 -708h-135l-433 708v-999h-192z" />
<glyph unicode="N" horiz-adv-x="1454" d="M168 0v1421h135l791 -1054v1054h192v-1421h-135l-791 1055v-1055h-192z" />
<glyph unicode="O" horiz-adv-x="1626" d="M96 713q0 154 54.5 285.5t151.5 231t227 156t282 56.5t282 -56.5t228 -156t153.5 -232.5t55.5 -286q0 -154 -55.5 -286t-152.5 -232.5t-227 -156.5t-280 -56q-152 0 -282 56t-229 156.5t-153.5 233.5t-54.5 287zM295 713q0 -160 65.5 -284t182 -194.5t268.5 -70.5 t269.5 70.5t184 194.5t66.5 284q0 158 -67.5 280.5t-184 193t-268.5 70.5t-268.5 -70.5t-182 -192.5t-65.5 -281z" />
<glyph unicode="P" horiz-adv-x="1241" d="M168 0v1421h528q129 0 233.5 -53t165 -151.5t60.5 -229.5t-60.5 -229.5t-165 -151.5t-233.5 -53h-336v-553h-192zM360 721h324q121 0 199 71.5t78 194.5t-78 194.5t-199 71.5h-324v-532z" />
<glyph unicode="Q" horiz-adv-x="1673" d="M96 713q0 154 55.5 285.5t152.5 231t227.5 156t281.5 56.5q150 0 281 -56.5t229 -156t152.5 -232.5t54.5 -286q0 -127 -39 -242t-109 -207l238 -237l-123 -125l-235 235q-90 -74 -204 -114.5t-241 -40.5q-152 0 -283 56t-229 156.5t-153.5 233.5t-55.5 287zM295 713 q0 -160 66.5 -284t183 -194.5t268.5 -70.5q92 0 172 27.5t143 76.5l-297 297l125 125l291 -293q41 66 62.5 146t21.5 170q0 158 -66.5 280.5t-183 193t-268.5 70.5t-268.5 -70.5t-183 -192.5t-66.5 -281z" />
<glyph unicode="R" horiz-adv-x="1290" d="M168 0v1421h522q135 0 234.5 -52t155 -142t55.5 -207q0 -174 -113 -282.5t-301 -116.5l510 -621h-244l-502 618h-125v-618h-192zM360 780h322q125 0 192.5 63.5t67.5 172.5q0 102 -67.5 169.5t-190.5 67.5h-324v-473z" />
<glyph unicode="S" horiz-adv-x="1136" d="M66 219l131 131q68 -94 155.5 -142t216.5 -48q127 0 204 55t77 152q0 80 -37 129t-99.5 80.5t-136 57t-147.5 55.5t-136.5 74t-99 115.5t-36.5 180.5q0 119 58 205t159.5 132t228.5 46q139 0 249 -54.5t181 -142.5l-131 -131q-63 74 -136 111t-167 37 q-115 0 -182.5 -50.5t-67.5 -140.5q0 -72 38 -117t99.5 -74.5t136 -55t148.5 -56.5t135.5 -78t99 -121.5t37.5 -187.5q0 -188 -130 -294.5t-351 -106.5q-168 0 -287.5 61t-209.5 178z" />
<glyph unicode="T" horiz-adv-x="1280" d="M61 1245v176h1158v-176h-482v-1245h-192v1245h-484z" />
<glyph unicode="U" horiz-adv-x="1398" d="M152 526v895h192v-891q0 -113 47 -194.5t128 -126.5t181 -45q102 0 182.5 45t126.5 127t46 192v893h194v-897q0 -158 -71.5 -280.5t-195.5 -193t-282 -70.5t-281.5 71.5t-195 194.5t-71.5 280z" />
<glyph unicode="V" horiz-adv-x="1409" d="M63 1421h209l433 -1106l434 1106h207l-574 -1421h-139z" />
<glyph unicode="W" horiz-adv-x="2009" d="M66 1421h192l340 -1073l336 1073h139l336 -1073l342 1073h191l-463 -1421h-138l-337 1073l-336 -1073h-138z" />
<glyph unicode="X" horiz-adv-x="1415" d="M61 0l531 727l-506 694h229l404 -559l395 559h217l-489 -684l512 -737h-226l-413 604l-436 -604h-218z" />
<glyph unicode="Y" horiz-adv-x="1361" d="M59 1421h224l401 -614l401 614h220l-527 -788v-633h-192v625z" />
<glyph unicode="Z" horiz-adv-x="1193" d="M80 0v133l772 1112h-729v176h985v-131l-772 -1114h758v-176h-1014z" />
<glyph unicode="[" horiz-adv-x="692" d="M162 -197v1659h456v-145h-301v-1366h301v-148h-456z" />
<glyph unicode="\" horiz-adv-x="798" d="M29 1501h174l567 -1583h-172z" />
<glyph unicode="]" horiz-adv-x="692" d="M74 -49h301v1366h-301v145h456v-1659h-456v148z" />
<glyph unicode="^" horiz-adv-x="927" d="M109 936l292 526h123l295 -526h-155l-199 358l-201 -358h-155z" />
<glyph unicode="_" horiz-adv-x="1034" d="M41 -94h952v-160h-952v160z" />
<glyph unicode="`" horiz-adv-x="575" d="M82 1341l145 144l267 -330l-84 -82z" />
<glyph unicode="a" d="M74 485q0 141 62.5 257t170 183.5t242.5 67.5q102 0 186 -41t137 -112v133h185v-973h-185v131q-51 -70 -135 -110.5t-188 -40.5q-133 0 -241.5 66.5t-171 181t-62.5 257.5zM264 487q0 -98 40 -172.5t112 -117.5t164 -43q137 0 221 92t84 239q0 150 -85 242t-222 92 q-92 0 -163 -43t-111 -117.5t-40 -171.5z" />
<glyph unicode="b" d="M135 0v1462h184v-624q53 74 138.5 114.5t189.5 40.5q133 0 239.5 -67.5t169 -182t62.5 -258.5q0 -143 -62.5 -257.5t-169 -181t-239.5 -66.5q-104 0 -189 40.5t-139 112.5v-133h-184zM309 485q0 -145 85 -238t222 -93t225.5 93t88.5 240q0 145 -88 238.5t-224 93.5 q-139 0 -224 -93t-85 -241z" />
<glyph unicode="c" horiz-adv-x="1001" d="M72 487q0 143 66.5 258t182 181.5t259.5 66.5q111 0 208 -43t166 -121l-123 -122q-93 108 -248 108h-3q-92 0 -164 -42t-113 -115.5t-41 -170.5q0 -96 41 -170.5t112.5 -116.5t164.5 -42q160 0 254 108l120 -123q-68 -78 -165.5 -120.5t-208.5 -42.5q-143 0 -259 67.5 t-182.5 182t-66.5 257.5z" />
<glyph unicode="d" d="M74 485q0 141 62.5 257t170 183.5t242.5 67.5q102 0 186 -41t137 -112v622h185v-1462h-185v131q-51 -70 -135 -110.5t-188 -40.5q-133 0 -241.5 66.5t-171 181t-62.5 257.5zM264 487q0 -98 40 -172.5t112 -117.5t164 -43q137 0 221 92t84 239q0 150 -85 242t-222 92 q-92 0 -163 -43t-111 -117.5t-40 -171.5z" />
<glyph unicode="e" horiz-adv-x="1097" d="M72 487q0 143 66.5 258t180 181.5t254.5 66.5q133 0 236.5 -61.5t163 -170t59.5 -245.5q0 -39 -10 -98h-762q23 -123 109 -193.5t217 -70.5q82 0 150.5 28.5t117.5 85.5l119 -121q-72 -82 -172 -124.5t-215 -42.5q-147 0 -263 66.5t-183.5 181t-67.5 259.5zM260 571h592 q-16 119 -89 185.5t-194 66.5q-123 0 -204.5 -67.5t-104.5 -184.5z" />
<glyph unicode="f" horiz-adv-x="817" d="M35 805v168h239v145q0 106 47.5 188.5t130.5 129.5t193 47q82 0 143.5 -30t114.5 -83l-121 -119q-27 29 -59.5 44.5t-79.5 15.5q-88 0 -136 -51.5t-48 -141.5v-145h309v-168h-309v-805h-185v805h-239z" />
<glyph unicode="g" horiz-adv-x="1185" d="M72 506q0 139 61.5 248.5t167 174t236.5 64.5q106 0 191 -40t138 -111v131h185v-934q0 -139 -64.5 -244.5t-180.5 -164t-267 -58.5q-150 0 -265.5 55.5t-185.5 155.5l119 121q57 -76 140 -116t196 -40q150 0 236.5 78t86.5 213v129q-53 -72 -137 -112t-190 -40 q-133 0 -238.5 63.5t-167 175.5t-61.5 251zM262 506q0 -141 87 -228.5t226 -87.5q135 0 218.5 86t83.5 228q0 141 -83 228t-221 87q-137 0 -224 -88t-87 -225z" />
<glyph unicode="h" horiz-adv-x="1122" d="M135 0v1462h184v-616q51 70 131 108.5t177 38.5q111 0 196.5 -50t135 -138t49.5 -201v-604h-185v567q0 111 -69.5 182.5t-180.5 71.5t-182.5 -71.5t-71.5 -182.5v-567h-184z" />
<glyph unicode="i" horiz-adv-x="458" d="M113 1286q0 49 32.5 83t83.5 34q49 0 83 -34t34 -83q0 -51 -34 -85t-83 -34q-51 0 -83.5 34t-32.5 85zM137 0v973h185v-973h-185z" />
<glyph unicode="j" horiz-adv-x="471" d="M-262 -309l119 121q55 -68 143 -68q61 0 106.5 38t45.5 114v1077h184v-1075q0 -106 -45 -179t-119 -110t-160 -37q-96 0 -159.5 29.5t-114.5 89.5zM131 1286q0 49 32 83t83 34t83.5 -34t32.5 -83q0 -51 -32.5 -85t-83.5 -34t-83 34t-32 85z" />
<glyph unicode="k" horiz-adv-x="1017" d="M135 0v1462h184v-948l433 459h223l-447 -467l467 -506h-237l-439 481v-481h-184z" />
<glyph unicode="l" horiz-adv-x="454" d="M135 0v1462h184v-1462h-184z" />
<glyph unicode="m" horiz-adv-x="1751" d="M135 0v973h184v-115q49 63 126 99t167 36q104 0 188.5 -46t131.5 -128q51 82 137 128t193 46q102 0 187 -45t135 -128t50 -195v-625h-184v588q0 109 -66.5 171t-166.5 62q-92 0 -159 -51t-79 -143v-627h-184v588q0 109 -66.5 171t-167.5 62q-100 0 -169.5 -62.5 t-69.5 -168.5h-3v-590h-184z" />
<glyph unicode="n" horiz-adv-x="1122" d="M135 0v973h184v-127q51 70 131 108.5t177 38.5q113 0 197.5 -55t134 -144t49.5 -190v-604h-185v567q0 111 -69.5 182.5t-180.5 71.5t-182.5 -71.5t-71.5 -182.5v-567h-184z" />
<glyph unicode="o" horiz-adv-x="1159" d="M72 489q0 141 67.5 255t182 181.5t258.5 67.5q141 0 255.5 -66.5t183 -181t68.5 -256.5q0 -143 -67.5 -258.5t-183 -183t-256.5 -67.5q-143 0 -258 67.5t-182.5 183t-67.5 258.5zM262 489q0 -96 41 -171.5t113 -117.5t164 -42t163.5 43t112.5 117.5t41 170.5 q0 94 -41 168t-113.5 116t-162.5 42q-92 0 -164 -42t-113 -115.5t-41 -168.5z" />
<glyph unicode="p" d="M135 -408v1381h184v-135q53 74 138.5 114.5t189.5 40.5q133 0 239.5 -67.5t169 -182t62.5 -258.5q0 -143 -62.5 -257.5t-169 -181t-239.5 -66.5q-104 0 -189 40.5t-139 112.5v-541h-184zM309 485q0 -145 85 -238t222 -93t225.5 93t88.5 240q0 145 -88 238.5t-224 93.5 q-139 0 -224 -93t-85 -241z" />
<glyph unicode="q" d="M74 485q0 141 62.5 257t171 183.5t241.5 67.5q104 0 188 -41t137 -112v133h185v-1381h-185v539q-53 -70 -137 -110.5t-186 -40.5q-135 0 -243.5 66.5t-171 181t-62.5 257.5zM264 487q0 -98 40 -172.5t112 -117.5t164 -43q137 0 221 92t84 239q0 150 -85 242t-220 92 q-92 0 -164 -43t-112 -117.5t-40 -171.5z" />
<glyph unicode="r" horiz-adv-x="858" d="M135 0v973h184v-115q43 63 110 99t155 36q145 0 243 -110l-120 -125q-61 61 -154 61q-102 0 -168 -65.5t-66 -198.5v-555h-184z" />
<glyph unicode="s" horiz-adv-x="874" d="M49 158l119 118q104 -129 278 -129q86 0 133.5 30t47.5 83t-38 83t-97.5 49.5t-126 39t-126 50t-97.5 83.5t-38 142q0 133 93.5 209.5t255.5 76.5q231 0 350 -159l-119 -119q-85 110 -235 110h-3q-80 0 -121.5 -28.5t-41.5 -75.5q0 -49 36.5 -76t96 -45t126 -37.5 t126 -51.5t97.5 -88t38 -147q0 -137 -97.5 -216.5t-261.5 -79.5q-123 0 -225 47t-170 131z" />
<glyph unicode="t" horiz-adv-x="753" d="M45 805v168h240v407h184v-407h240v-168h-240v-805h-184v805h-240z" />
<glyph unicode="u" horiz-adv-x="1056" d="M111 408v565h184v-557q0 -121 62.5 -189.5t170.5 -68.5q109 0 170.5 68.5t61.5 189.5v557h184v-565q0 -127 -53 -223.5t-146.5 -150.5t-216.5 -54t-217 54t-147 150.5t-53 223.5z" />
<glyph unicode="v" horiz-adv-x="1046" d="M23 973h204l299 -686l301 686h197l-446 -973h-109z" />
<glyph unicode="w" horiz-adv-x="1536" d="M29 973h192l248 -674l246 674h106l246 -674l248 674h192l-383 -973h-108l-248 645l-248 -645h-106z" />
<glyph unicode="x" horiz-adv-x="1032" d="M35 0l371 500l-353 473h223l248 -340l240 340h215l-346 -471l364 -502h-223l-260 367l-262 -367h-217z" />
<glyph unicode="y" horiz-adv-x="1052" d="M33 973h205l280 -690l297 690h205l-455 -981l-184 -400h-205l240 492z" />
<glyph unicode="z" horiz-adv-x="915" d="M57 0v100l527 705h-492v168h760v-101l-528 -704h516v-168h-783z" />
<glyph unicode="{" horiz-adv-x="661" d="M61 565v142h58q109 0 94 151l-25 248q-18 178 61 267t236 89h103v-145h-86q-92 0 -130 -47t-28 -156l21 -225q8 -94 -12.5 -155.5t-86.5 -98.5q66 -35 86.5 -97.5t12.5 -154.5l-21 -231q-8 -109 29 -155t129 -46h86v-148h-103q-158 0 -235.5 89.5t-61.5 267.5l25 254 q14 152 -94 151h-58z" />
<glyph unicode="|" horiz-adv-x="569" d="M201 -266v1831h168v-1831h-168z" />
<glyph unicode="}" horiz-adv-x="661" d="M74 -49h86q92 0 129 46t28 155l-20 231q-10 92 11.5 154.5t86.5 97.5q-66 37 -87 98.5t-11 155.5l20 225q10 109 -27.5 156t-129.5 47h-86v145h102q158 0 237 -89t60 -267l-24 -248q-16 -152 94 -151h57v-142h-57q-111 0 -94 -151l24 -254q16 -178 -61.5 -267.5 t-235.5 -89.5h-102v148z" />
<glyph unicode="~" horiz-adv-x="1075" d="M92 686q51 74 119 113t154 39q78 0 133 -23.5t103 -47.5t110 -24q96 0 168 82l104 -104q-51 -74 -117.5 -113t-150.5 -39q-76 0 -129.5 23.5t-102.5 47.5t-112 24q-102 0 -172 -82z" />
<glyph unicode="&#xa1;" horiz-adv-x="546" d="M139 858q0 57 37 96t96 39q57 0 94 -39t37 -96q0 -55 -37 -94t-94 -39q-59 0 -96 39t-37 94zM174 -408l27 930h143l27 -930h-197z" />
<glyph unicode="&#xa2;" horiz-adv-x="1067" d="M100 711q0 129 55.5 235.5t150.5 176t218 87.5v191h135v-187q199 -18 324 -159l-121 -123q-78 88 -203 104v-651q125 16 203 107l121 -123q-123 -143 -324 -162v-187h-135v191q-123 18 -218 89t-150.5 177.5t-55.5 233.5zM291 713q0 -123 63.5 -209t169.5 -113v639 q-106 -27 -169.5 -112.5t-63.5 -204.5z" />
<glyph unicode="&#xa3;" horiz-adv-x="1267" d="M135 0v176h195v432h-195v154h195v227q0 141 57 242.5t156.5 156t224.5 54.5q145 0 236.5 -57.5t144.5 -137.5l-127 -127q-47 66 -104.5 106t-151.5 40q-106 0 -175 -69t-69 -189v-246h400v-154h-400v-432h598v-176h-985z" />
<glyph unicode="&#xa5;" horiz-adv-x="1320" d="M117 1421h223l322 -630l323 630h219l-256 -454h213v-152h-299l-104 -186v-19h403v-153h-403v-457h-193v457h-405v153h405v8l-110 197h-295v152h211z" />
<glyph unicode="&#xad;" horiz-adv-x="944" d="M135 434v174h674v-174h-674z" />
<glyph unicode="&#xbf;" horiz-adv-x="1001" d="M104 -31q0 147 85 250t229 143l12 160h160v-307h-53q-109 -2 -175.5 -65.5t-66.5 -167.5q0 -100 64.5 -165t168.5 -65q98 0 170 50.5t115 138.5l135 -113q-59 -121 -171 -188.5t-257 -67.5q-121 0 -215 51t-147.5 140.5t-53.5 205.5zM379 860q0 55 37 94t96 39 q57 0 94 -39t37 -94q0 -57 -37 -96t-94 -39q-59 0 -96 39t-37 96z" />
<glyph unicode="&#x2000;" horiz-adv-x="813" />
<glyph unicode="&#x2001;" horiz-adv-x="1626" />
<glyph unicode="&#x2002;" horiz-adv-x="813" />
<glyph unicode="&#x2003;" horiz-adv-x="1626" />
<glyph unicode="&#x2004;" horiz-adv-x="542" />
<glyph unicode="&#x2005;" horiz-adv-x="406" />
<glyph unicode="&#x2006;" horiz-adv-x="271" />
<glyph unicode="&#x2007;" horiz-adv-x="271" />
<glyph unicode="&#x2008;" horiz-adv-x="203" />
<glyph unicode="&#x2009;" horiz-adv-x="325" />
<glyph unicode="&#x200a;" horiz-adv-x="90" />
<glyph unicode="&#x2010;" horiz-adv-x="944" d="M135 434v174h674v-174h-674z" />
<glyph unicode="&#x2011;" horiz-adv-x="944" d="M135 434v174h674v-174h-674z" />
<glyph unicode="&#x2012;" horiz-adv-x="944" d="M135 434v174h674v-174h-674z" />
<glyph unicode="&#x2013;" horiz-adv-x="1124" d="M135 442v158h854v-158h-854z" />
<glyph unicode="&#x2014;" horiz-adv-x="1744" d="M135 444v152h1462v-152h-1462z" />
<glyph unicode="&#x2018;" horiz-adv-x="507" d="M104 1090q0 23 9.5 55.5t36.5 81.5l137 254l104 -58l-110 -211q39 -6 67.5 -39.5t28.5 -82.5q0 -57 -40 -98.5t-95 -41.5t-96.5 41t-41.5 99z" />
<glyph unicode="&#x2019;" horiz-adv-x="509" d="M119 969l110 211q-39 6 -67.5 39.5t-28.5 83.5q0 57 40 98t97 41q53 0 94.5 -40t41.5 -99q0 -23 -9.5 -56t-36.5 -82l-135 -254z" />
<glyph unicode="&#x201c;" horiz-adv-x="884" d="M104 1090q0 23 9.5 55.5t36.5 81.5l137 254l104 -58l-110 -211q39 -6 67.5 -39.5t28.5 -82.5q0 -57 -40 -98.5t-95 -41.5t-96.5 41t-41.5 99zM481 1090q0 23 9.5 55.5t35.5 81.5l138 254l104 -58l-111 -211q39 -6 68 -39.5t29 -82.5q0 -57 -40 -98.5t-96 -41.5 q-55 0 -96 41t-41 99z" />
<glyph unicode="&#x201d;" horiz-adv-x="886" d="M119 969l110 211q-39 6 -67.5 39.5t-28.5 83.5q0 57 40 98t97 41q53 0 94.5 -40t41.5 -99q0 -23 -9.5 -56t-36.5 -82l-135 -254zM496 969l110 211q-39 6 -67.5 39.5t-28.5 83.5q0 57 40 98t97 41q53 0 94 -40t41 -99q0 -23 -9 -56t-36 -82l-135 -254z" />
<glyph unicode="&#x202f;" horiz-adv-x="325" />
<glyph unicode="&#x205f;" horiz-adv-x="406" />
<glyph unicode="&#x20ac;" horiz-adv-x="1484" d="M51 457v153h144q-6 49 -7 101q0 53 7 104h-144v152h176q45 139 137.5 246.5t222.5 168t290 60.5q158 0 276.5 -57.5t216.5 -155.5l-133 -133q-68 80 -158 123t-211 43q-158 0 -270.5 -80t-167.5 -215h596l-49 -152h-588q-6 -51 -8 -104q0 -51 8 -101h553l-49 -153h-465 q55 -137 172 -217t279 -80q121 0 211 44t157 124l133 -131q-98 -102 -221 -159.5t-282 -57.5q-160 0 -290 60t-222.5 167.5t-137.5 249.5h-176z" />
<glyph unicode="&#x25fc;" horiz-adv-x="972" d="M0 0v973h973v-973h-973z" />
</font>
</defs>
</svg>
