<?xml version="1.0" standalone="no"?>
<!DOCTYPE svg PUBLIC "-//W3C//DTD SVG 1.1//EN" "http://www.w3.org/Graphics/SVG/1.1/DTD/svg11.dtd" >
<svg xmlns="http://www.w3.org/2000/svg" xmlns:xlink="http://www.w3.org/1999/xlink" version="1.1">
<metadata></metadata>
<defs>
<font id="outfitbold" horiz-adv-x="946" >
<font-face units-per-em="2048" ascent="1638" descent="-410" />
<missing-glyph horiz-adv-x="389" />
<glyph unicode="&#xfb01;" horiz-adv-x="1310" d="M18 729v266h220v107q0 113 50 206t144 147t223 54q131 0 238 -77l-156 -230q-39 27 -82 27q-51 0 -77.5 -31t-26.5 -80v-123h651v-995h-313v729h-338v-729h-313v729h-220zM885 1233q0 68 45 116t117 48q70 0 115.5 -48.5t45.5 -115.5q0 -70 -45.5 -118t-115.5 -48 q-72 0 -117 48t-45 118z" />
<glyph unicode="&#xfb02;" horiz-adv-x="1292" d="M18 729v266h220v76q0 117 54 217.5t157.5 160.5t246.5 60v-280q-70 0 -107.5 -43t-37.5 -105v-86h317v492h314v-1487h-314v729h-317v-729h-313v729h-220z" />
<glyph horiz-adv-x="0" />
<glyph horiz-adv-x="682" />
<glyph unicode=" "  horiz-adv-x="389" />
<glyph unicode="&#x09;" horiz-adv-x="389" />
<glyph unicode="&#xa0;" horiz-adv-x="389" />
<glyph unicode="!" horiz-adv-x="585" d="M102 166q0 80 52.5 135t134.5 55q80 0 133 -55t53 -135t-53 -134.5t-133 -54.5q-82 0 -134.5 54.5t-52.5 134.5zM121 1487h338l-51 -959h-236z" />
<glyph unicode="&#x22;" horiz-adv-x="933" d="M109 1487h303l-60 -608h-186zM524 1487h303l-57 -608h-188z" />
<glyph unicode="#" horiz-adv-x="1355" d="M72 414v223h227l35 205h-193v221h230l63 383h254l-63 -383h206l64 383h256l-66 -383h199v-221h-235l-33 -205h201v-223h-238l-70 -414h-254l68 414h-207l-67 -414h-254l67 414h-190zM553 637h207l35 205h-207z" />
<glyph unicode="$" horiz-adv-x="1234" d="M74 213l202 207q68 -82 150 -128t188 -46q98 0 154.5 38t56.5 107q0 68 -48 109t-123.5 68.5t-161.5 59t-162 80t-124 128t-48 206.5q0 168 101 275.5t267 138.5v197h226v-191q113 -16 209 -66t161 -126l-202 -207q-63 68 -129 103.5t-140 35.5q-88 0 -137 -32.5 t-49 -96.5q0 -63 48 -100t125 -64.5t163 -59.5t162.5 -82t126 -133t49.5 -214q0 -174 -102.5 -284.5t-284.5 -143.5v-199h-226v187q-143 10 -251.5 67t-200.5 166z" />
<glyph unicode="%" horiz-adv-x="1402" d="M68 1167q0 84 39.5 151.5t108.5 107.5t155 40q84 0 153.5 -40t110.5 -107.5t41 -151.5q0 -86 -41 -154.5t-109.5 -108.5t-154.5 -40q-84 0 -152.5 40t-109.5 108.5t-41 154.5zM125 0l866 1446h287l-866 -1446h-287zM285 1165q0 -39 24.5 -63.5t61.5 -24.5q39 0 63.5 24.5 t24.5 63.5t-25.5 63.5t-62.5 24.5t-61.5 -24.5t-24.5 -63.5zM727 283q0 84 40 151.5t108.5 108.5t154.5 41q84 0 153.5 -41t110.5 -108.5t41 -151.5q0 -86 -41 -155t-109.5 -108.5t-154.5 -39.5q-84 0 -152.5 39.5t-109.5 108.5t-41 155zM944 283q0 -39 24.5 -64.5 t61.5 -25.5q39 0 63.5 25.5t24.5 64.5q0 37 -25.5 62.5t-62.5 25.5t-61.5 -26t-24.5 -62z" />
<glyph unicode="&#x26;" horiz-adv-x="1415" d="M80 422q0 121 58.5 219t176.5 166q-84 119 -84 254q0 111 55.5 204t154 149t227.5 56q150 0 251 -63.5t150 -138.5l-209 -199q-41 55 -86 84t-102 29q-61 0 -101.5 -36t-40.5 -89q0 -45 19.5 -81t56.5 -77l803 -899h-367l-100 109q-63 -53 -161.5 -92.5t-213.5 -39.5 q-147 0 -256.5 58.5t-170 159t-60.5 227.5zM377 442q0 -80 53 -129t145 -49q100 0 166 66l-262 288q-102 -57 -102 -176z" />
<glyph unicode="'" horiz-adv-x="512" d="M104 1487h304l-58 -608h-188z" />
<glyph unicode="(" horiz-adv-x="634" d="M66 643q0 274 95 513t271 390l172 -166q-133 -127 -201.5 -314t-68.5 -423q0 -238 68.5 -425t201.5 -314l-172 -164q-176 150 -271 388.5t-95 514.5z" />
<glyph unicode=")" horiz-adv-x="634" d="M31 -96q131 127 200.5 314.5t69.5 424.5q0 236 -69.5 423t-200.5 314l172 166q174 -152 270 -390t96 -513q0 -276 -96 -514.5t-270 -388.5z" />
<glyph unicode="*" horiz-adv-x="1003" d="M66 997l292 101l-243 180l178 180l178 -248l98 297l226 -116l-183 -256l316 -2l-41 -250l-297 98l96 -305l-252 -41l-2 321l-252 -182z" />
<glyph unicode="+" horiz-adv-x="1153" d="M100 555v260h344v371h267v-371h342v-260h-342v-367h-267v367h-344z" />
<glyph unicode="," horiz-adv-x="579" d="M111 -246l127 238q-49 12 -87 58t-38 112q0 80 53 137t135 57q76 0 132 -56t56 -138q0 -33 -12 -77t-49 -112l-166 -303z" />
<glyph unicode="-" d="M111 385v274h725v-274h-725z" />
<glyph unicode="." horiz-adv-x="614" d="M121 166q0 80 52 135t134 55q80 0 133.5 -55t53.5 -135t-53.5 -134.5t-133.5 -54.5q-82 0 -134 54.5t-52 134.5z" />
<glyph unicode="/" horiz-adv-x="786" d="M6 -113l502 1659h272l-501 -1659h-273z" />
<glyph unicode="0" horiz-adv-x="1363" d="M66 725q0 223 79.5 390t219 260t315.5 93t316.5 -93t221 -261t80.5 -391t-80.5 -391t-219 -261.5t-314.5 -93.5t-316.5 94.5t-221 263.5t-80.5 390zM389 725q0 -227 79 -345t214 -118t214 118t79 345q0 225 -80 342t-215 117t-213 -116t-78 -343z" />
<glyph unicode="1" horiz-adv-x="774" d="M41 1174v272h598v-1446h-320v1174h-278z" />
<glyph unicode="2" horiz-adv-x="1155" d="M47 1176q174 293 524 292q147 0 258 -56t171.5 -157.5t60.5 -238.5q0 -88 -22.5 -160t-73 -142.5t-134.5 -154.5l-286 -285h545v-274h-1041v180l555 574q76 78 108.5 134t32.5 118q0 84 -54 132t-142 48q-86 0 -154.5 -47t-132.5 -150z" />
<glyph unicode="3" horiz-adv-x="1144" d="M33 180l207 207q39 -59 113.5 -94t158.5 -35q111 0 180.5 58.5t69.5 160.5q0 100 -72 158.5t-196 58.5q-39 0 -81 -6t-71 -14v178l274 322h-493v272h932v-178l-332 -379q100 -8 182 -62.5t129 -146.5t47 -215q0 -145 -70.5 -255t-197.5 -171.5t-295 -61.5 q-309 0 -485 203z" />
<glyph unicode="4" horiz-adv-x="1247" d="M43 322v180l475 944h350l-438 -852h295v301h315v-301h162v-272h-162v-322h-315v322h-682z" />
<glyph unicode="5" horiz-adv-x="1146" d="M25 180l208 207q39 -59 114 -94t163 -35q115 0 186.5 62.5t71.5 166.5q0 106 -72.5 168t-183.5 62q-145 0 -248 -78l-139 129l70 678h813v-272h-553l-29 -248q70 27 170 26q160 0 269.5 -66.5t165.5 -175t56 -237.5q0 -145 -70.5 -257t-198.5 -175.5t-298 -63.5 q-150 0 -279.5 52.5t-215.5 150.5z" />
<glyph unicode="6" horiz-adv-x="1173" d="M51 481q0 184 129 373l408 592h362l-348 -483q20 2 41 2q133 0 241.5 -62.5t174 -171t65.5 -246.5q0 -141 -71.5 -256.5t-193 -183.5t-271.5 -68q-154 0 -274.5 67t-191.5 181.5t-71 255.5zM365 492q0 -100 62.5 -167t160.5 -67q96 0 159.5 66.5t63.5 167.5 q0 100 -64.5 165.5t-158.5 65.5q-98 0 -160.5 -66.5t-62.5 -164.5z" />
<glyph unicode="7" horiz-adv-x="1079" d="M41 1174v272h997v-180l-473 -1266h-332l455 1174h-647z" />
<glyph unicode="8" horiz-adv-x="1150" d="M59 401q0 127 60.5 222.5t163.5 144.5q-80 47 -123 130t-43 177q0 115 58 204t161.5 140t238.5 51t237.5 -51t162 -140t59.5 -204q0 -94 -43 -177t-125 -130q104 -49 165 -144.5t61 -220.5t-63.5 -220t-179.5 -150.5t-274 -55.5q-156 0 -272.5 55.5t-180 151t-63.5 217.5 zM367 449q0 -86 58 -141.5t150 -55.5t151.5 55t59.5 142q0 84 -59 140t-152 56q-92 0 -150 -56.5t-58 -139.5zM412 1042q0 -72 45.5 -117.5t117.5 -45.5t118 45t46 116q0 72 -46 118t-118 46t-117.5 -45t-45.5 -117z" />
<glyph unicode="9" horiz-adv-x="1173" d="M51 961q0 143 71 257.5t192.5 182t273.5 67.5t272.5 -66.5t191 -181t70.5 -255.5q0 -184 -127 -371l-407 -594h-365l348 483h-41q-133 0 -241.5 61.5t-173 170t-64.5 246.5zM362 954q0 -100 65 -165.5t161 -65.5t159.5 66.5t63.5 164.5q0 100 -63.5 167t-159.5 67 q-98 0 -162 -66.5t-64 -167.5z" />
<glyph unicode=":" horiz-adv-x="593" d="M111 166q0 80 52 135t134 55q80 0 133 -55t53 -135t-53 -134.5t-133 -54.5q-82 0 -134 54.5t-52 134.5zM111 772q0 80 52 135.5t134 55.5q80 0 133 -55.5t53 -135.5t-53 -134t-133 -54q-82 0 -134 54t-52 134z" />
<glyph unicode=";" horiz-adv-x="573" d="M102 -246l129 238q-51 12 -88 58t-37 112q0 80 54.5 137t134.5 57q76 0 132 -56t56 -138q0 -33 -13 -77t-50 -112l-164 -303zM104 772q0 80 52.5 135.5t134.5 55.5q80 0 132 -55.5t52 -135.5t-52 -134t-132 -54q-82 0 -134.5 54t-52.5 134z" />
<glyph unicode="&#x3c;" horiz-adv-x="1167" d="M94 580v215l957 401v-285l-572 -225l572 -225v-283z" />
<glyph unicode="=" horiz-adv-x="1153" d="M100 305v260h953v-260h-953zM100 797v260h953v-260h-953z" />
<glyph unicode="&#x3e;" horiz-adv-x="1167" d="M117 178v283l569 225l-569 225v285l956 -401v-215z" />
<glyph unicode="?" horiz-adv-x="1021" d="M47 1239q61 121 177 195.5t278 74.5q133 0 235.5 -55t159.5 -150.5t57 -213.5q0 -158 -80.5 -256.5t-205.5 -143.5l-13 -168h-245l-17 393h88q76 0 123 40t47 112q0 68 -45 107.5t-119 39.5q-78 0 -139 -45t-100 -118zM346 166q0 80 52.5 135t133.5 55q80 0 132.5 -55 t52.5 -135t-52.5 -134.5t-132.5 -54.5q-82 0 -134 54.5t-52 134.5z" />
<glyph unicode="@" horiz-adv-x="1548" d="M78 467q0 147 55 274t152.5 221.5t227.5 147.5t282 53q199 0 351 -87t238 -240.5t86 -354.5q0 -193 -79 -315h-496v35q-54 -43 -154 -43q-78 0 -145.5 41t-108.5 111.5t-41 156.5q0 88 41 159.5t109 113.5t143 42q102 -2 156 -45v29h192v-424h144q16 68 16 147 q0 223 -119.5 341t-326.5 118q-143 0 -253 -57t-171.5 -166t-61.5 -260q0 -150 58.5 -257.5t164 -163.5t242.5 -56q96 0 173 26.5t141 77.5l149 -153q-92 -82 -210 -124t-251 -42q-150 0 -277.5 52t-223 146.5t-149.5 220t-54 275.5zM645 469q0 -53 30 -87t81 -34 q53 0 82.5 35t29.5 86t-30.5 85t-81.5 34t-81 -34t-30 -85z" />
<glyph unicode="A" horiz-adv-x="1492" d="M31 0l573 1446h291l567 -1446h-340l-96 262h-565l-96 -262h-334zM557 524h375l-187 516z" />
<glyph unicode="B" horiz-adv-x="1312" d="M139 0v1446h621q139 0 236.5 -51.5t148.5 -137.5t51 -190q0 -197 -178 -295q111 -53 169 -144t58 -208q0 -119 -58.5 -214t-168 -150.5t-262.5 -55.5h-617zM457 250h268q92 0 146.5 54t54.5 136t-54.5 136.5t-146.5 54.5h-268v-381zM457 874h241q78 0 128.5 40t50.5 122 q0 80 -49.5 120t-129.5 40h-241v-322z" />
<glyph unicode="C" horiz-adv-x="1411" d="M66 725q0 158 57 293t159.5 236.5t239.5 157.5t301 56q172 0 306.5 -55t234.5 -151l-215 -218q-57 61 -138 96.5t-188 35.5q-127 0 -223 -56.5t-150.5 -158t-54.5 -236.5q0 -137 54.5 -239.5t150.5 -159t223 -56.5q111 0 193 35t141 96l217 -217q-104 -96 -238.5 -151.5 t-310.5 -55.5q-164 0 -302 56.5t-240.5 158t-159.5 237.5t-57 296z" />
<glyph unicode="D" horiz-adv-x="1544" d="M139 0v1446h580q162 0 301 -53.5t241.5 -149.5t160 -228t57.5 -292q0 -158 -57.5 -291t-160 -229.5t-239.5 -149.5t-299 -53h-584zM461 283h254q197 0 315.5 116.5t118.5 325.5q0 207 -119.5 323.5t-314.5 116.5h-254v-882z" />
<glyph unicode="E" horiz-adv-x="1259" d="M139 0v1446h1028v-277h-706v-297h645v-268h-645v-325h717v-279h-1039z" />
<glyph unicode="F" horiz-adv-x="1208" d="M139 0v1446h1002v-277h-680v-325h647v-277h-647v-567h-322z" />
<glyph unicode="G" horiz-adv-x="1607" d="M66 725q0 158 59 293t164.5 236.5t246 157.5t304.5 56q186 0 338.5 -67.5t253.5 -186.5l-220 -219q-143 180 -376 181q-127 0 -227.5 -56.5t-157 -158t-56.5 -236.5t54.5 -237.5t150.5 -160t221 -57.5q154 0 253.5 70t131.5 201l-413 6v272h759v-47q0 -260 -93 -437 t-258 -267.5t-380 -90.5q-160 0 -297 57.5t-240.5 159t-160.5 237.5t-57 294z" />
<glyph unicode="H" horiz-adv-x="1495" d="M139 0v1446h322v-563h573v563h324v-1446h-324v604h-573v-604h-322z" />
<glyph unicode="I" horiz-adv-x="600" d="M139 0v1446h322v-1446h-322z" />
<glyph unicode="J" horiz-adv-x="1089" d="M29 168l215 207q74 -104 200 -105q90 0 147.5 55.5t57.5 163.5v957h324v-938q0 -164 -65.5 -283t-184.5 -183.5t-283 -64.5q-137 0 -238.5 50.5t-172.5 140.5z" />
<glyph unicode="K" horiz-adv-x="1443" d="M139 0v1446h322v-651l534 651h398l-586 -688l606 -758h-399l-553 711v-711h-322z" />
<glyph unicode="L" horiz-adv-x="1148" d="M139 0v1446h322v-1163h641v-283h-963z" />
<glyph unicode="M" horiz-adv-x="1757" d="M139 0v1446h230l510 -797l510 797h231v-1446h-322v801l-313 -490h-213l-313 490v-801h-320z" />
<glyph unicode="N" horiz-adv-x="1511" d="M139 0v1446h226l686 -879v879h321v-1446h-235l-676 866v-866h-322z" />
<glyph unicode="O" horiz-adv-x="1650" d="M66 725q0 158 57 294t159.5 237.5t241 157.5t301.5 56q162 0 300.5 -56t241.5 -157.5t160.5 -237.5t57.5 -296q0 -158 -57.5 -294t-159.5 -237.5t-240.5 -159t-298.5 -57.5q-164 0 -302 57.5t-242.5 160t-161.5 238.5t-57 294zM395 725q0 -137 53.5 -239.5t150.5 -160 t226 -57.5t225.5 57.5t150.5 160t54 239.5q0 135 -54 237.5t-151.5 159t-224.5 56.5q-129 0 -226 -56.5t-150.5 -159t-53.5 -237.5z" />
<glyph unicode="P" horiz-adv-x="1286" d="M139 0v1446h604q137 0 248 -56.5t175.5 -159t64.5 -243.5q0 -143 -64.5 -245.5t-175 -159t-248.5 -56.5h-282v-526h-322zM461 776h235q90 0 152.5 55.5t62.5 155.5q0 98 -62.5 153.5t-152.5 55.5h-235v-420z" />
<glyph unicode="Q" horiz-adv-x="1677" d="M66 725q0 158 57 294t160.5 237.5t242 157.5t299.5 56q162 0 300.5 -56t241.5 -157.5t161.5 -237.5t58.5 -296q0 -125 -37 -236.5t-102 -203.5l213 -211l-186 -187l-218 215q-90 -59 -198.5 -92t-229.5 -33q-162 0 -301 57.5t-242.5 160t-161.5 238.5t-58 294zM395 725 q0 -137 54.5 -239.5t150.5 -160t225 -57.5q119 0 213 51l-239 242l186 187l232 -234q40 92 40 205v6q0 135 -54 237.5t-151.5 159t-226.5 56.5t-225 -56.5t-150.5 -159t-54.5 -237.5z" />
<glyph unicode="R" horiz-adv-x="1335" d="M139 0v1446h590q143 0 252 -54.5t170 -150.5t61 -221q0 -164 -100 -273.5t-268 -140.5l463 -606h-381l-430 596h-35v-596h-322zM461 834h229q96 0 148.5 49t52.5 133q0 78 -52.5 129t-146.5 51h-231v-362z" />
<glyph unicode="S" horiz-adv-x="1193" d="M33 213l209 207q70 -82 153.5 -125t198.5 -43q102 0 158.5 37t56.5 102q0 68 -49 109t-126 68.5t-164 59t-165 80t-126 128t-48 206.5q0 133 64.5 228.5t179 146.5t264.5 51q152 0 277.5 -54t207.5 -144l-209 -207q-66 68 -132 100.5t-150 32.5q-86 0 -134 -31.5 t-48 -91.5q0 -63 48 -100t125.5 -64.5t165 -59.5t164 -82t125.5 -133t49 -214q0 -209 -147.5 -326t-407.5 -117q-178 0 -307 57.5t-233 178.5z" />
<glyph unicode="T" horiz-adv-x="1308" d="M41 1165v281h1227v-281h-453v-1165h-321v1165h-453z" />
<glyph unicode="U" horiz-adv-x="1437" d="M117 569v877h323v-895q0 -131 81 -206t200 -75q121 0 198.5 75t77.5 204v897h324v-879q0 -172 -76 -305t-211 -209t-313 -76t-314.5 77t-213 210t-76.5 305z" />
<glyph unicode="V" horiz-adv-x="1460" d="M33 1446h344l354 -975l359 975h340l-564 -1446h-276z" />
<glyph unicode="W" horiz-adv-x="2052" d="M35 1446h319l277 -905l270 905h252l270 -907l277 907h317l-465 -1446h-252l-274 913l-274 -913h-252z" />
<glyph unicode="X" horiz-adv-x="1464" d="M31 0l514 743l-488 703h383l303 -465l299 465h367l-475 -694l500 -752h-377l-324 514l-336 -514h-366z" />
<glyph unicode="Y" horiz-adv-x="1406" d="M27 1446h372l308 -528l309 528h364l-514 -830v-616h-321v602z" />
<glyph unicode="Z" horiz-adv-x="1245" d="M61 0v225l689 944h-648v277h1076v-223l-691 -947h672v-276h-1098z" />
<glyph unicode="[" horiz-adv-x="714" d="M133 -197v1684h516v-230h-264v-1224h264v-230h-516z" />
<glyph unicode="\" horiz-adv-x="786" d="M6 1546h273l501 -1659h-272z" />
<glyph unicode="]" horiz-adv-x="714" d="M66 33h264v1224h-264v230h516v-1684h-516v230z" />
<glyph unicode="^" horiz-adv-x="954" d="M70 926l311 561h192l314 -561h-242l-168 315l-166 -315h-241z" />
<glyph unicode="_" horiz-adv-x="1034" d="M0 -80h1034v-246h-1034v246z" />
<glyph unicode="`" horiz-adv-x="661" d="M82 1270l172 241l326 -305l-103 -149z" />
<glyph unicode="a" horiz-adv-x="1218" d="M49 498q0 147 62.5 265t170 185.5t244.5 67.5q82 0 153 -27.5t122 -75.5v82h307v-995h-307v82q-51 -49 -122 -75.5t-153 -26.5q-137 0 -244.5 67.5t-170 184t-62.5 266.5zM367 498q0 -104 62.5 -170t160.5 -66q100 0 161.5 65.5t61.5 170.5q0 104 -61.5 169.5 t-159.5 65.5t-161.5 -66.5t-63.5 -168.5z" />
<glyph unicode="b" horiz-adv-x="1218" d="M111 0v1487h313v-555q51 39 117.5 61.5t142.5 22.5q141 0 250.5 -67.5t172 -185.5t62.5 -265q0 -150 -62.5 -266.5t-172 -184t-250.5 -67.5q-78 0 -145.5 24.5t-118.5 67.5v-72h-309zM406 498q0 -104 61.5 -170t161.5 -66q98 0 160.5 65.5t62.5 170.5q0 102 -62.5 168.5 t-160.5 66.5q-100 0 -161.5 -65.5t-61.5 -169.5z" />
<glyph unicode="c" horiz-adv-x="1015" d="M45 498q0 147 72.5 265t196.5 186.5t282 68.5q233 0 387 -160l-201 -201q-70 76 -186 76q-100 0 -165.5 -64.5t-65.5 -168.5q0 -106 65.5 -172t165.5 -66q121 0 192 82l199 -201q-159 -166 -395 -166q-156 0 -280 68t-195.5 185.5t-71.5 267.5z" />
<glyph unicode="d" horiz-adv-x="1206" d="M51 498q0 145 57.5 263t160 186.5t235.5 68.5q94 0 164.5 -31t117.5 -86v588h310v-1487h-310v94q-47 -53 -117.5 -83.5t-164.5 -30.5q-133 0 -235.5 68.5t-160 186t-57.5 263.5zM369 506q0 -104 59.5 -170t155.5 -66q98 0 157.5 65.5t59.5 170.5q0 104 -59.5 170.5 t-157.5 66.5q-96 0 -155.5 -66.5t-59.5 -170.5z" />
<glyph unicode="e" horiz-adv-x="1122" d="M45 498q0 150 70.5 266.5t191.5 185t273 68.5q145 0 258.5 -64.5t178 -176t64.5 -257.5q0 -55 -14 -125l-713 -2q25 -84 88.5 -129t157.5 -45q150 0 238 103l172 -172q-74 -86 -178.5 -129.5t-229.5 -43.5q-162 0 -288 67t-197.5 184.5t-71.5 269.5zM354 608l434 2 q-38 168 -206 168q-86 0 -145.5 -45t-82.5 -125z" />
<glyph unicode="f" horiz-adv-x="892" d="M18 729v266h220v86q0 121 54 218.5t152.5 153.5t233.5 56q102 0 178 -33.5t135 -93.5l-196 -196q-20 20 -46 31.5t-61 11.5q-63 0 -100 -37t-37 -100v-97h287v-266h-287v-729h-313v729h-220z" />
<glyph unicode="g" horiz-adv-x="1196" d="M45 524q0 139 61.5 250t168 176.5t243.5 65.5q76 0 142.5 -22.5t117.5 -65.5v67h307v-936q0 -154 -71.5 -267.5t-196.5 -175.5t-285 -62q-164 0 -287.5 56t-195.5 159l193 192q53 -63 119.5 -96t160.5 -33q117 0 183.5 57.5t66.5 161.5v64q-49 -39 -114.5 -61.5 t-139.5 -22.5q-137 0 -243.5 65.5t-168 177t-61.5 250.5zM362 524q0 -88 59 -151.5t157 -63.5t155.5 61.5t57.5 153.5t-57.5 154.5t-155.5 62.5t-157 -63.5t-59 -153.5z" />
<glyph unicode="h" horiz-adv-x="1171" d="M111 0v1487h313v-565q106 94 268 94q115 0 203 -48t137 -134t49 -197v-637h-313v567q0 78 -48 126t-122 48q-76 0 -125 -48t-49 -126v-567h-313z" />
<glyph unicode="i" horiz-adv-x="534" d="M98 1305q0 72 48.5 122t121.5 50q74 0 121 -50.5t47 -121.5q0 -72 -47 -122t-121 -50t-122 50t-48 122zM111 0v995h313v-995h-313z" />
<glyph unicode="j" horiz-adv-x="559" d="M-264 -309l194 194q41 -49 101 -49q45 0 74.5 26.5t29.5 82.5v1050h314v-1046q0 -121 -51.5 -210t-141.5 -137t-203 -48q-109 0 -184.5 35.5t-132.5 101.5zM125 1305q0 72 48 122t122 50t121 -50.5t47 -121.5q0 -72 -47 -122t-121 -50t-122 50t-48 122z" />
<glyph unicode="k" horiz-adv-x="1118" d="M111 0v1487h313v-936l321 444h351l-365 -469l385 -526h-368l-324 479v-479h-313z" />
<glyph unicode="l" horiz-adv-x="534" d="M111 0v1487h313v-1487h-313z" />
<glyph unicode="m" horiz-adv-x="1787" d="M111 0v995h313v-73q106 94 268 94q184 0 291 -135q117 135 317 135q113 0 203 -48t142.5 -137.5t52.5 -214.5v-616h-314v582q0 74 -46 116.5t-113 42.5q-72 0 -118 -43t-46 -116v-582h-313v582q0 74 -46.5 116.5t-113.5 42.5q-72 0 -118 -43t-46 -116v-582h-313z" />
<glyph unicode="n" horiz-adv-x="1171" d="M111 0v995h313v-80q111 100 278 101q109 0 195 -52.5t135 -138.5t49 -188v-637h-313v567q0 78 -48 126t-122 48q-76 0 -125 -48t-49 -126v-567h-313z" />
<glyph unicode="o" horiz-adv-x="1179" d="M45 500q0 147 71.5 264t194.5 185.5t279 68.5q154 0 277.5 -67.5t195.5 -185.5t72 -265t-72 -266t-194.5 -188t-278.5 -69q-154 0 -278 69t-195.5 187.5t-71.5 266.5zM365 498q0 -104 62.5 -170t162.5 -66t162.5 65.5t62.5 172.5q0 104 -63.5 168.5t-161.5 64.5 q-100 0 -162.5 -65.5t-62.5 -169.5z" />
<glyph unicode="p" horiz-adv-x="1218" d="M111 -420v1415h313v-69q51 43 117.5 66.5t142.5 23.5q141 0 250.5 -67.5t172 -185.5t62.5 -265q0 -150 -62.5 -266.5t-172 -184t-250.5 -67.5q-78 0 -145.5 23.5t-118.5 64.5v-488h-309zM406 498q0 -104 61.5 -170t161.5 -66q98 0 160.5 66.5t62.5 169.5 q0 104 -62.5 169.5t-160.5 65.5q-100 0 -161.5 -65.5t-61.5 -169.5z" />
<glyph unicode="q" horiz-adv-x="1218" d="M49 498q0 147 62.5 265t170 185.5t244.5 67.5q82 0 153 -27.5t122 -75.5v82h307v-1415h-307v502q-51 -49 -122 -75.5t-153 -26.5q-137 0 -244.5 67.5t-170 184t-62.5 266.5zM367 498q0 -104 62.5 -170t160.5 -66q100 0 161.5 65.5t61.5 170.5q0 104 -61.5 169.5 t-159.5 65.5t-161.5 -66.5t-63.5 -168.5z" />
<glyph unicode="r" horiz-adv-x="909" d="M111 0v995h313v-75q98 96 256 96q141 0 221 -88l-186 -236q-20 23 -50 35t-71 12q-78 0 -124 -48t-46 -144v-547h-313z" />
<glyph unicode="s" horiz-adv-x="937" d="M18 160l179 180q102 -113 264 -113q114 0 114 61q0 38 -35.5 57.5t-91 33.5t-117 33.5t-116.5 52.5t-90 90t-35 150q0 141 107.5 230t291.5 89q127 0 234.5 -44t175.5 -130l-178 -180q-47 55 -105.5 77.5t-113.5 22.5q-106 0 -107 -59q0 -33 35 -50.5t90 -33t116.5 -35 t116 -54t90.5 -94t36 -151.5q0 -147 -110 -232.5t-296 -85.5q-133 0 -256 49.5t-199 135.5z" />
<glyph unicode="t" horiz-adv-x="817" d="M27 729v266h225v412h313v-412h226v-266h-226v-729h-313v729h-225z" />
<glyph unicode="u" horiz-adv-x="1103" d="M86 420v575h313v-573q0 -78 41 -122t113 -44q70 0 111 44t41 122v573h313v-575q0 -131 -59.5 -231.5t-164 -156t-241.5 -55.5t-242.5 56.5t-165 156t-59.5 230.5z" />
<glyph unicode="v" horiz-adv-x="1099" d="M2 995h338l213 -618l213 618h332l-422 -993l-252 -2z" />
<glyph unicode="w" horiz-adv-x="1607" d="M10 995h307l170 -577l189 577h254l188 -577l172 577h307l-344 -995h-256l-194 573l-195 -573h-254z" />
<glyph unicode="x" horiz-adv-x="1097" d="M10 0l357 508l-338 487h366l166 -270l168 270h340l-332 -481l353 -514h-363l-184 297l-191 -297h-342z" />
<glyph unicode="y" horiz-adv-x="1093" d="M8 995h338l199 -606l203 606h337l-426 -999l-176 -416h-321l225 488z" />
<glyph unicode="z" horiz-adv-x="985" d="M47 0v184l436 549h-399v262h844v-182l-436 -551h423v-262h-868z" />
<glyph unicode="{" horiz-adv-x="700" d="M37 537v225h57q57 0 79 26.5t15 90.5l-22 239q-18 182 74 275.5t270 93.5h125v-230h-78q-86 0 -114.5 -34.5t-20.5 -106.5l16 -203q8 -98 -14.5 -162.5t-97.5 -103.5q76 -37 98 -101.5t14 -162.5l-16 -209q-6 -70 21.5 -105.5t113.5 -35.5h78v-230h-125 q-178 0 -270.5 91.5t-73.5 277.5l22 248q6 61 -15 89t-79 28h-57z" />
<glyph unicode="|" horiz-adv-x="614" d="M166 -266v1855h283v-1855h-283z" />
<glyph unicode="}" horiz-adv-x="700" d="M55 33h78q86 0 113.5 35.5t21.5 105.5l-16 209q-10 98 12.5 162.5t97.5 101.5q-76 39 -98 103.5t-12 162.5l16 203q6 72 -21.5 106.5t-113.5 34.5h-78v230h125q178 0 270.5 -93.5t73.5 -275.5l-22 -239q-6 -63 15.5 -90t78.5 -27h57v-225h-57q-57 0 -78.5 -28t-15.5 -89 l22 -248q16 -186 -75 -277.5t-269 -91.5h-125v230z" />
<glyph unicode="~" horiz-adv-x="1181" d="M78 721q72 96 152.5 143t181.5 47q63 0 108 -16t82 -37.5t74 -37t84 -15.5q53 0 96 20.5t84 69.5l164 -164q-143 -190 -340 -190q-66 0 -112 16t-81.5 37.5t-71.5 38t-83 16.5q-53 0 -94 -22.5t-82 -69.5z" />
<glyph unicode="&#xa1;" horiz-adv-x="587" d="M109 827q0 80 52 134.5t134 54.5q80 0 132 -54.5t52 -134.5t-52 -134t-132 -54q-82 0 -134 54.5t-52 133.5zM125 -420l51 887h236l51 -887h-338z" />
<glyph unicode="&#xa2;" horiz-adv-x="1056" d="M63 723q0 125 52.5 229.5t145.5 176t216 100.5v196h225v-188q176 -27 299 -154l-200 -200q-70 76 -187 75q-100 0 -165.5 -64.5t-65.5 -168.5q0 -106 65.5 -172t165.5 -66q121 0 193 82l199 -200q-129 -133 -304 -160v-189h-225v197q-123 27 -215 98.5t-145.5 176 t-53.5 231.5z" />
<glyph unicode="&#xa3;" horiz-adv-x="1288" d="M113 0v283h194v309h-194v235h194v179q0 145 62.5 252.5t173 168t252.5 60.5q139 0 242.5 -56.5t164.5 -142.5l-203 -203q-39 57 -80.5 86t-109.5 29q-82 0 -131 -51t-49 -139v-183h358v-235h-358v-309h534v-283h-1050z" />
<glyph unicode="&#xa5;" horiz-adv-x="1376" d="M94 1446h350l248 -557l246 557h344l-244 -467h205v-195h-307l-68 -133h375v-194h-391v-457h-324v457h-395v194h371l-68 133h-303v195h201z" />
<glyph unicode="&#xad;" d="M111 385v274h725v-274h-725z" />
<glyph unicode="&#xbf;" horiz-adv-x="999" d="M70 -35q0 143 78.5 242.5t207.5 146.5l13 117h245l17 -317h-88q-76 0 -123 -41t-47 -111t44 -109.5t115 -39.5q76 0 137.5 45t102.5 118l201 -186q-61 -123 -178 -197.5t-279 -74.5q-131 0 -231.5 52t-157.5 144t-57 211zM307 827q0 80 52.5 134.5t132.5 54.5 q82 0 134 -54.5t52 -134.5t-52 -134t-134 -54q-80 0 -132.5 54.5t-52.5 133.5z" />
<glyph unicode="&#x2000;" horiz-adv-x="826" />
<glyph unicode="&#x2001;" horiz-adv-x="1653" />
<glyph unicode="&#x2002;" horiz-adv-x="826" />
<glyph unicode="&#x2003;" horiz-adv-x="1653" />
<glyph unicode="&#x2004;" horiz-adv-x="551" />
<glyph unicode="&#x2005;" horiz-adv-x="413" />
<glyph unicode="&#x2006;" horiz-adv-x="275" />
<glyph unicode="&#x2007;" horiz-adv-x="275" />
<glyph unicode="&#x2008;" horiz-adv-x="206" />
<glyph unicode="&#x2009;" horiz-adv-x="330" />
<glyph unicode="&#x200a;" horiz-adv-x="91" />
<glyph unicode="&#x2010;" d="M111 385v274h725v-274h-725z" />
<glyph unicode="&#x2011;" d="M111 385v274h725v-274h-725z" />
<glyph unicode="&#x2012;" d="M111 385v274h725v-274h-725z" />
<glyph unicode="&#x2013;" horiz-adv-x="1163" d="M111 395v254h942v-254h-942z" />
<glyph unicode="&#x2014;" horiz-adv-x="1775" d="M111 397v250h1546v-250h-1546z" />
<glyph unicode="&#x2018;" horiz-adv-x="534" d="M68 1016q0 31 13 75t50 113l164 303l154 -84l-130 -239q49 -12 87 -58.5t38 -109.5q0 -80 -54 -137.5t-134 -57.5q-76 0 -132 56.5t-56 138.5z" />
<glyph unicode="&#x2019;" horiz-adv-x="534" d="M88 864l127 240q-49 12 -87 58t-38 112q0 78 54.5 135t134.5 57q76 0 132 -56t56 -136q0 -33 -12.5 -77t-48.5 -112l-166 -303z" />
<glyph unicode="&#x201c;" horiz-adv-x="997" d="M68 1016q0 31 13 75t50 113l164 303l154 -84l-130 -239q49 -12 87 -58.5t38 -109.5q0 -80 -54 -137.5t-134 -57.5q-76 0 -132 56.5t-56 138.5zM530 1016q0 31 12.5 75t49.5 113l166 303l151 -84l-129 -239q51 -12 89 -58.5t38 -109.5q0 -80 -54 -137.5t-134 -57.5 q-78 0 -133.5 56.5t-55.5 138.5z" />
<glyph unicode="&#x201d;" horiz-adv-x="997" d="M88 864l127 240q-49 12 -87 58t-38 112q0 78 54.5 135t134.5 57q76 0 132 -56t56 -136q0 -33 -12.5 -77t-48.5 -112l-166 -303zM549 864l129 240q-51 12 -88 58t-37 112q0 78 54.5 135t133.5 57q76 0 132.5 -56t56.5 -136q0 -33 -13.5 -77t-50.5 -112l-164 -303z" />
<glyph unicode="&#x202f;" horiz-adv-x="330" />
<glyph unicode="&#x205f;" horiz-adv-x="413" />
<glyph unicode="&#x20ac;" horiz-adv-x="1462" d="M-6 457v194h141q-4 37 -4 74q0 29 2 59h-139v195h178q47 145 146.5 256t236.5 172t303 61t296 -55t230 -151l-215 -218q-57 63 -134 99.5t-183 36.5q-113 0 -200 -53.5t-136 -147.5h463l-49 -195h-469q-2 -29 -2 -59q0 -39 2 -74h444l-49 -194h-334q51 -90 137 -139.5 t201 -49.5q102 0 180 35t138 98l217 -217q-104 -96 -234.5 -151.5t-300.5 -55.5q-162 0 -299 60.5t-236.5 169t-148.5 250.5h-182z" />
<glyph unicode="&#x25fc;" horiz-adv-x="993" d="M0 0v993h993v-993h-993z" />
</font>
</defs>
</svg>
