<?xml version="1.0" standalone="no"?>
<!DOCTYPE svg PUBLIC "-//W3C//DTD SVG 1.1//EN" "http://www.w3.org/Graphics/SVG/1.1/DTD/svg11.dtd" >
<svg xmlns="http://www.w3.org/2000/svg" xmlns:xlink="http://www.w3.org/1999/xlink" version="1.1">
<metadata></metadata>
<defs>
<font id="outfitlight" horiz-adv-x="942" >
<font-face units-per-em="2048" ascent="1638" descent="-410" />
<missing-glyph horiz-adv-x="440" />
<glyph unicode="&#xfb01;" horiz-adv-x="1142" d="M45 834v129h242v184q0 92 41 164.5t113.5 115.5t168.5 43q70 0 127.5 -24.5t104.5 -69.5l-97 -96q-57 55 -137 55q-84 0 -130 -52t-46 -140v-180h565v-963h-145v834h-420v-834h-145v834h-242zM825 1182q0 43 28 71.5t71 28.5t71.5 -28.5t28.5 -71.5t-28.5 -72t-71.5 -29 t-71 29t-28 72z" />
<glyph unicode="&#xfb02;" horiz-adv-x="1140" d="M45 834v129h242v153q0 96 45 177t126 129t189 48l-2 -135q-104 0 -158.5 -63.5t-54.5 -159.5v-149h420v501h145v-1464h-145v834h-420v-834h-145v834h-242z" />
<glyph horiz-adv-x="0" />
<glyph horiz-adv-x="682" />
<glyph unicode=" "  horiz-adv-x="440" />
<glyph unicode="&#x09;" horiz-adv-x="440" />
<glyph unicode="&#xa0;" horiz-adv-x="440" />
<glyph unicode="!" horiz-adv-x="534" d="M145 96q0 49 33 84t84 35q49 0 82 -35t33 -84t-33 -82.5t-82 -33.5q-51 0 -84 33.5t-33 82.5zM184 1450h158l-23 -1022h-112z" />
<glyph unicode="&#x22;" horiz-adv-x="765" d="M156 1450h163l-36 -455h-90zM449 1450h161l-35 -455h-92z" />
<glyph unicode="#" horiz-adv-x="1306" d="M111 449v116h233l47 307h-221v117h238l63 420h125l-64 -420h310l63 420h125l-61 -420h227v-117h-246l-45 -307h230v-116h-248l-66 -449h-125l66 449h-309l-66 -449h-125l66 449h-217zM469 565h311l45 307h-309z" />
<glyph unicode="$" horiz-adv-x="1212" d="M133 217l103 102q68 -96 152.5 -147t195.5 -57v544q-68 25 -133.5 54.5t-118.5 73.5t-85 111t-32 165q0 158 102.5 254t266.5 110v187h108v-187q109 -12 198 -63t152 -131l-102 -103q-53 66 -114.5 107t-133.5 53v-508q90 -33 174 -79t139.5 -124.5t55.5 -213.5 q0 -164 -99.5 -262.5t-269.5 -118.5v-189h-108v185q-145 4 -256 65t-195 172zM360 1073q0 -104 64.5 -157.5t159.5 -92.5v469q-104 -10 -164 -67.5t-60 -151.5zM692 121q98 16 157.5 75.5t59.5 153.5q0 113 -63.5 170.5t-153.5 95.5v-495z" />
<glyph unicode="%" horiz-adv-x="1355" d="M121 1145q0 80 38 144.5t103.5 102.5t145.5 38q78 0 143 -38t104 -102.5t39 -144.5t-39 -144.5t-103 -102.5t-144 -38t-144.5 38t-103.5 102.5t-39 144.5zM152 0l905 1409h147l-903 -1409h-149zM244 1147q0 -78 46 -124t116 -46q72 0 118.5 46t46.5 124q0 74 -48 120 t-117 46q-70 0 -116 -46t-46 -120zM662 266q0 78 37.5 142.5t103 102.5t145.5 38q78 0 143.5 -38t104.5 -102.5t39 -142.5q0 -82 -39 -146.5t-103.5 -102t-144.5 -37.5t-144.5 37.5t-103 102t-38.5 146.5zM784 266q0 -76 46 -123t116 -47q72 0 120 47t48 123q0 74 -49 120 t-119 46t-116 -46t-46 -120z" />
<glyph unicode="&#x26;" horiz-adv-x="1327" d="M133 399q0 123 62.5 225.5t177.5 166.5q-96 127 -97 266q0 109 49.5 192.5t137.5 133t203 49.5q119 0 211 -54.5t147 -140.5l-104 -94q-49 70 -110.5 108.5t-143.5 38.5q-109 0 -176.5 -64.5t-67.5 -168.5q0 -76 31.5 -135.5t105.5 -133.5l741 -788h-182l-137 145 q-68 -76 -170 -120.5t-221 -44.5q-135 0 -238.5 54t-161 148t-57.5 217zM279 403q0 -131 88 -208.5t229 -77.5q92 0 166 35.5t123 93.5l-434 454q-80 -45 -126 -122t-46 -175z" />
<glyph unicode="'" horiz-adv-x="475" d="M156 1450h163l-36 -455h-90z" />
<glyph unicode="(" horiz-adv-x="626" d="M106 633q0 174 42 335.5t124 299t199 231.5l84 -78q-156 -133 -237.5 -336.5t-81.5 -451.5t81.5 -452t237.5 -335l-84 -77q-117 94 -199 230t-124 299t-42 335z" />
<glyph unicode=")" horiz-adv-x="626" d="M72 -154q158 131 239.5 335t81.5 452t-82 451.5t-239 336.5l86 78q117 -94 197.5 -231.5t122.5 -299t42 -335.5q0 -172 -42 -335t-122.5 -299t-197.5 -230z" />
<glyph unicode="*" horiz-adv-x="999" d="M115 1008l307 120l-252 209l96 97l213 -248l123 301l123 -62l-176 -276l332 -21l-21 -135l-323 78l79 -317l-137 -21l-22 326l-279 -172z" />
<glyph unicode="+" horiz-adv-x="1099" d="M131 618v130h352v374h133v-374h353v-130h-353v-372h-133v372h-352z" />
<glyph unicode="," horiz-adv-x="561" d="M166 -211l98 195q-35 4 -62.5 34.5t-27.5 75.5q0 49 34 85t85 36q47 0 83 -36t36 -85q0 -20 -8.5 -49t-28.5 -72l-123 -231z" />
<glyph unicode="-" d="M145 451v137h654v-137h-654z" />
<glyph unicode="." horiz-adv-x="591" d="M180 98q0 49 32 83t83 34t84 -34t33 -83t-33 -83.5t-84 -34.5t-83 34.5t-32 83.5z" />
<glyph unicode="/" horiz-adv-x="778" d="M41 -82l561 1567h135l-561 -1567h-135z" />
<glyph unicode="0" horiz-adv-x="1345" d="M109 707q0 221 75.5 383.5t203.5 251t284 88.5q158 0 285.5 -88.5t203.5 -251t76 -385.5q0 -221 -76 -384t-202.5 -252t-282.5 -89t-285 89t-205.5 252.5t-76.5 385.5zM260 707q0 -188 53.5 -319.5t146.5 -199t212 -67.5q121 0 214 67.5t146 198.5t53 320q0 186 -53 316 t-147 197.5t-213 67.5t-212 -67.5t-146.5 -197.5t-53.5 -316z" />
<glyph unicode="1" horiz-adv-x="692" d="M74 1276v133h444v-1409h-147v1276h-297z" />
<glyph unicode="2" horiz-adv-x="1105" d="M78 0v92l522 545q90 94 140.5 159.5t69.5 120t19 115.5q0 119 -75.5 188.5t-200.5 69.5q-115 0 -201 -54t-153 -163l-105 92q82 129 197 197t266 68q127 0 221 -50.5t147.5 -139.5t53.5 -210q0 -84 -23.5 -152.5t-80 -144.5t-156.5 -180l-408 -418h703v-135h-936z" />
<glyph unicode="3" horiz-adv-x="1095" d="M74 186l100 101q51 -78 138 -122t194 -44q152 0 244 86t92 227t-93.5 227.5t-250.5 86.5q-68 0 -142 -19v92l404 455h-625v133h842v-92l-416 -465h19q117 0 211 -54.5t148 -150.5t54 -219q0 -133 -61.5 -233.5t-171 -157.5t-252.5 -57q-281 0 -434 206z" />
<glyph unicode="4" horiz-adv-x="1222" d="M78 373v94l526 942h168l-512 -901h528v432h148v-432h209v-135h-209v-373h-148v373h-710z" />
<glyph unicode="5" horiz-adv-x="1101" d="M72 186l100 101q51 -78 138 -122t196 -44q152 0 249 88t97 235q0 150 -94 237t-232 87q-178 0 -293 -98l-79 82l61 657h725v-133h-602l-45 -453q98 68 256 68q141 0 242.5 -60.5t157 -163t55.5 -231.5q0 -133 -65 -236.5t-176.5 -161.5t-254.5 -58q-283 0 -436 206z" />
<glyph unicode="6" horiz-adv-x="1157" d="M94 459q0 178 125 352l443 598h176l-392 -518q70 35 166 35q123 0 226.5 -60.5t165 -165t61.5 -237.5t-65.5 -242.5t-176 -175t-245.5 -65.5t-246 63t-174.5 172t-63.5 244zM244 463q0 -96 44 -175t121 -124t171 -45q92 0 167.5 46t121.5 124t46 174t-46 174t-121.5 124 t-167.5 46q-94 0 -171 -46t-121 -124t-44 -174z" />
<glyph unicode="7" horiz-adv-x="1081" d="M74 1276v133h930v-94l-531 -1315h-156l521 1276h-764z" />
<glyph unicode="8" horiz-adv-x="1130" d="M98 391q0 125 67.5 224.5t186.5 144.5q-92 45 -140 127t-48 180q0 106 52 188t142.5 129.5t206.5 47.5q117 0 207 -47.5t142.5 -129t52.5 -188.5q0 -98 -48.5 -180t-140.5 -127q119 -45 186.5 -144.5t67.5 -224.5q0 -119 -59.5 -212t-165 -146t-242.5 -53t-242.5 53 t-165 146t-59.5 212zM244 406q0 -129 90 -210t231 -81t231.5 80.5t90.5 210.5q0 127 -90 208.5t-232 81.5q-141 0 -231 -82t-90 -208zM305 1059q0 -111 72.5 -178.5t187.5 -67.5t187.5 67.5t72.5 178.5q0 109 -72.5 176.5t-187.5 67.5t-187.5 -68t-72.5 -176z" />
<glyph unicode="9" horiz-adv-x="1157" d="M92 946q0 133 65.5 242.5t176 175.5t246.5 66q137 0 246.5 -63.5t174 -172.5t64.5 -242q0 -180 -125 -352l-444 -600h-177l394 518q-70 -35 -166 -35q-125 0 -228.5 60.5t-165 166t-61.5 236.5zM244 946q0 -94 45 -173t121 -124t170 -45t169.5 45t119.5 123t44 174 q0 98 -44 176t-119.5 124t-169.5 46t-170 -47t-121 -125t-45 -174z" />
<glyph unicode=":" horiz-adv-x="552" d="M162 98q0 49 31.5 83t82.5 34q49 0 83 -34t34 -83t-34 -83.5t-83 -34.5q-51 0 -82.5 34.5t-31.5 83.5zM162 741q0 49 31.5 83t82.5 34q49 0 83 -33.5t34 -83.5q0 -49 -34 -82.5t-83 -33.5q-51 0 -82.5 33.5t-31.5 82.5z" />
<glyph unicode=";" horiz-adv-x="550" d="M156 -211l100 195q-37 4 -64.5 34.5t-27.5 75.5q0 49 36 85t85 36q45 0 80.5 -36t35.5 -85q0 -20 -7 -49t-29 -72l-121 -231zM162 741q0 49 31.5 83t82.5 34t84 -33.5t33 -83.5q0 -49 -33 -82.5t-84 -33.5t-82.5 33.5t-31.5 82.5z" />
<glyph unicode="&#x3c;" horiz-adv-x="1105" d="M123 635v102l838 379v-143l-658 -287l658 -287v-143z" />
<glyph unicode="=" horiz-adv-x="1099" d="M131 383v129h838v-129h-838zM131 854v129h838v-129h-838z" />
<glyph unicode="&#x3e;" horiz-adv-x="1105" d="M147 256v143l656 287l-656 287v143l836 -379v-102z" />
<glyph unicode="?" horiz-adv-x="1034" d="M96 1233q57 109 164 173t250 64q121 0 213 -50t143.5 -137t51.5 -198q0 -145 -89.5 -252.5t-236.5 -140.5l-10 -264h-123l-2 383h51q117 4 188.5 80t71.5 186q0 106 -71.5 179t-192.5 73q-106 0 -181 -51t-120 -135zM403 96q0 49 32 84t83 35t84 -35t33 -84t-33 -82.5 t-84 -33.5t-83 33.5t-32 82.5z" />
<glyph unicode="@" horiz-adv-x="1564" d="M131 483q0 141 51 263t142.5 212.5t213 140.5t263.5 50q184 0 327.5 -84t224.5 -233.5t81 -342.5q0 -168 -72 -284h-418v61q-63 -78 -192 -78q-80 0 -144.5 39t-102.5 106.5t-38 149.5q0 84 38 153t102.5 108.5t144.5 39.5q129 0 192 -79v67h111v-467h229q29 72 29 195 q0 164 -63.5 283.5t-178.5 185t-268 65.5q-158 0 -281 -69.5t-193.5 -193.5t-70.5 -290q0 -164 68.5 -285.5t187.5 -189t270 -67.5q115 0 204 30.5t157 91.5l84 -81q-182 -158 -441 -158q-139 0 -257.5 50t-209 140t-140.5 210t-50 261zM578 485q0 -86 52 -140t128 -54 q84 0 133 54t49 140q0 90 -49 142.5t-131 52.5q-78 0 -130 -54.5t-52 -140.5z" />
<glyph unicode="A" horiz-adv-x="1413" d="M76 0l577 1409h113l571 -1409h-161l-148 367h-645l-147 -367h-160zM436 500h539l-268 671z" />
<glyph unicode="B" horiz-adv-x="1280" d="M180 0v1409h520q131 0 222.5 -47t139.5 -127t48 -180q0 -205 -178 -303q115 -51 178.5 -143.5t63.5 -213.5q0 -115 -55.5 -204t-158 -140t-247.5 -51h-533zM330 133h393q137 0 218 77t81 196q0 113 -79 191.5t-208 78.5h-405v-543zM330 807h383q115 0 181.5 61.5 t66.5 173.5q0 113 -72 174.5t-193 61.5h-366v-471z" />
<glyph unicode="C" horiz-adv-x="1419" d="M111 707q0 152 52 282.5t147.5 230t223.5 155t279 55.5q162 0 290 -57.5t224 -158.5l-102 -102q-74 80 -178.5 127t-233.5 47q-158 0 -281.5 -75.5t-194.5 -207t-71 -296.5q0 -168 71 -300.5t195.5 -207t282.5 -74.5q135 0 240.5 47t179.5 129l102 -104 q-94 -100 -225 -158.5t-293 -58.5q-154 0 -282.5 55t-225 154.5t-148.5 231.5t-52 286z" />
<glyph unicode="D" horiz-adv-x="1513" d="M180 0v1409h510q154 0 284 -52t226 -147.5t150.5 -224.5t54.5 -280q0 -152 -53.5 -280t-149.5 -223.5t-226 -148.5t-282 -53h-514zM330 137h356q166 0 293 73t198.5 202t71.5 295t-72.5 292.5t-198.5 198.5t-292 72h-356v-1133z" />
<glyph unicode="E" horiz-adv-x="1206" d="M180 0v1409h916v-137h-766v-484h712v-133h-712v-518h778v-137h-928z" />
<glyph unicode="F" horiz-adv-x="1161" d="M180 0v1409h889v-137h-739v-498h704v-137h-704v-637h-150z" />
<glyph unicode="G" horiz-adv-x="1583" d="M111 707q0 154 53 284.5t150.5 230t228.5 155t284 55.5q168 0 311.5 -68t235.5 -190l-104 -105q-74 104 -189.5 160.5t-253.5 56.5q-166 0 -292.5 -74.5t-197.5 -206t-71 -300.5q0 -170 71 -300.5t194.5 -205t281.5 -74.5q221 0 357.5 124t154.5 351h-526v137h686v-22 q0 -238 -85 -401.5t-234.5 -247.5t-348.5 -84q-150 0 -278.5 54t-225 153.5t-149.5 231.5t-53 286z" />
<glyph unicode="H" horiz-adv-x="1433" d="M180 0v1409h150v-612h774v612h149v-1409h-149v659h-774v-659h-150z" />
<glyph unicode="I" horiz-adv-x="509" d="M180 0v1409h150v-1409h-150z" />
<glyph unicode="J" horiz-adv-x="1013" d="M74 152l106 98q92 -125 250 -125q111 0 190.5 72.5t79.5 228.5v983h152v-981q0 -141 -57.5 -241.5t-151.5 -153.5t-209 -53q-119 0 -209 46t-151 126z" />
<glyph unicode="K" horiz-adv-x="1349" d="M180 0v1409h150v-649l727 649h200l-755 -672l776 -737h-205l-743 709v-709h-150z" />
<glyph unicode="L" horiz-adv-x="1134" d="M180 0v1409h150v-1272h725v-137h-875z" />
<glyph unicode="M" horiz-adv-x="1712" d="M180 0v1409h107l569 -936l571 936h107v-1409h-152v1081l-473 -776h-106l-473 776v-1081h-150z" />
<glyph unicode="N" horiz-adv-x="1439" d="M180 0v1409h107l823 -1120v1120h152v-1409h-107l-825 1120v-1120h-150z" />
<glyph unicode="O" horiz-adv-x="1626" d="M109 707q0 152 53 283.5t148.5 230t223.5 154t277 55.5q150 0 278 -55.5t224 -155t149.5 -230.5t53.5 -284q0 -152 -53.5 -284t-148.5 -231.5t-223.5 -154.5t-275.5 -55q-150 0 -277.5 56t-224 155.5t-150.5 231.5t-54 284zM264 707q0 -168 71 -300.5t194.5 -207 t281.5 -74.5q160 0 284 74.5t194.5 207t70.5 300.5q0 166 -70.5 297t-194.5 206.5t-284 75.5q-158 0 -281.5 -75.5t-194.5 -206t-71 -297.5z" />
<glyph unicode="P" horiz-adv-x="1245" d="M180 0v1409h522q127 0 227.5 -52t159 -146.5t58.5 -223.5q0 -127 -58.5 -222t-159 -147.5t-227.5 -52.5h-372v-565h-150zM330 698h362q131 0 217 78t86 211t-86 212t-217 79h-362v-580z" />
<glyph unicode="Q" horiz-adv-x="1667" d="M111 707q0 152 53 283.5t148.5 230t223.5 154t277 55.5q147 0 275.5 -55.5t224.5 -155t150.5 -230.5t54.5 -284q0 -131 -41 -248t-113 -209l254 -252l-96 -96l-250 247q-92 -78 -208 -122.5t-247 -44.5q-150 0 -278.5 56t-225 155.5t-149.5 231.5t-53 284zM266 707 q0 -168 71 -300.5t193.5 -207t282.5 -76.5q102 0 193.5 33.5t160.5 95.5l-331 332l96 96l325 -326q49 72 77 161t28 192q0 166 -71.5 297t-195.5 206.5t-282 75.5q-160 0 -283.5 -75.5t-193.5 -206t-70 -297.5z" />
<glyph unicode="R" horiz-adv-x="1296" d="M180 0v1409h506q135 0 233.5 -50t151.5 -138t53 -203q0 -170 -112.5 -276.5t-306.5 -110.5l520 -631h-193l-512 631h-190v-631h-150zM330 758h356q139 0 213 69.5t74 190.5q0 113 -74 186.5t-213 73.5h-356v-520z" />
<glyph unicode="S" horiz-adv-x="1134" d="M78 217l104 102q72 -100 167 -149t226 -49q135 0 219.5 61.5t84.5 169.5q0 84 -39 137.5t-101.5 88t-138.5 61.5t-151.5 56.5t-138 74.5t-100.5 114.5t-38 178.5q0 113 54.5 195.5t150.5 127t221 44.5q135 0 243.5 -53.5t180.5 -143.5l-102 -103q-66 78 -145 119t-181 41 q-123 0 -196.5 -58t-73.5 -159q0 -80 37.5 -129t100 -82t138.5 -59.5t151.5 -57t138 -76.5t101.5 -120t39 -184q0 -184 -124 -284.5t-337 -100.5q-166 0 -284.5 61t-206.5 176z" />
<glyph unicode="T" horiz-adv-x="1294" d="M76 1272v137h1143v-137h-496v-1272h-152v1272h-495z" />
<glyph unicode="U" horiz-adv-x="1384" d="M162 506v903h151v-895q0 -119 49.5 -207t136.5 -135t195 -47q109 0 194 47t135 134t50 206v897h150v-905q0 -150 -70 -268.5t-188.5 -187t-270.5 -68.5q-154 0 -273.5 68.5t-189 188t-69.5 269.5z" />
<glyph unicode="V" horiz-adv-x="1390" d="M76 1409h164l454 -1165l461 1165h160l-565 -1409h-113z" />
<glyph unicode="W" horiz-adv-x="2004" d="M80 1409h149l361 -1141l356 1141h113l356 -1139l361 1139h151l-457 -1409h-110l-359 1141l-356 -1141h-110z" />
<glyph unicode="X" horiz-adv-x="1402" d="M76 0l536 719l-514 690h181l432 -586l424 586h170l-498 -682l520 -727h-178l-440 625l-463 -625h-170z" />
<glyph unicode="Y" horiz-adv-x="1349" d="M72 1409h176l428 -639l432 639h170l-526 -774v-635h-152v627z" />
<glyph unicode="Z" horiz-adv-x="1181" d="M88 0v100l799 1172h-760v137h963v-100l-799 -1172h782v-137h-985z" />
<glyph unicode="[" horiz-adv-x="686" d="M172 -197v1647h432v-115h-307v-1417h307v-115h-432z" />
<glyph unicode="\" horiz-adv-x="778" d="M41 1485h135l561 -1567h-135z" />
<glyph unicode="]" horiz-adv-x="686" d="M82 -82h307v1417h-307v115h432v-1647h-432v115z" />
<glyph unicode="^" horiz-adv-x="931" d="M123 936l293 514h98l295 -514h-127l-217 383l-215 -383h-127z" />
<glyph unicode="_" horiz-adv-x="1083" d="M82 -109h919v-122h-919v122z" />
<glyph unicode="`" horiz-adv-x="550" d="M82 1356l115 114l272 -323l-66 -66z" />
<glyph unicode="a" horiz-adv-x="1196" d="M84 479q0 141 62.5 256t171 181.5t243.5 66.5q113 0 204 -48t144 -132v160h144v-963h-144v160q-53 -84 -143 -132t-203 -48q-137 0 -245.5 66.5t-171 179t-62.5 253.5zM231 481q0 -106 45.5 -189t125.5 -129t184 -46q150 0 241 100t91 264t-92.5 265.5t-241.5 101.5 q-102 0 -182 -47t-125.5 -130t-45.5 -190z" />
<glyph unicode="b" horiz-adv-x="1198" d="M145 0v1450h144v-649q55 84 148 133t206 49q133 0 239.5 -66.5t169 -180t62.5 -257.5q0 -141 -62.5 -253.5t-169 -179t-239.5 -66.5q-117 0 -209 49t-145 133v-162h-144zM281 481q0 -109 43 -190.5t118.5 -127.5t175.5 -46t179.5 46t124.5 129t45 189t-45 189.5 t-123 130.5t-178 47t-177 -47t-120 -130t-43 -190z" />
<glyph unicode="c" horiz-adv-x="1005" d="M82 483q0 141 66.5 254t179 179.5t256.5 66.5q106 0 200.5 -41t161.5 -115l-94 -96q-102 115 -268 115q-102 0 -182 -47t-125.5 -129t-45.5 -187q0 -106 45.5 -188t125 -129t182.5 -47q168 0 270 114l96 -96q-68 -76 -164 -116.5t-202 -40.5q-143 0 -256 66.5t-179.5 181 t-66.5 255.5z" />
<glyph unicode="d" horiz-adv-x="1196" d="M84 479q0 141 62.5 256t171 181.5t243.5 66.5q113 0 204 -48t144 -132v647h144v-1450h-144v160q-53 -84 -143 -132t-203 -48q-137 0 -245.5 66.5t-171 179t-62.5 253.5zM231 481q0 -106 45.5 -189t125.5 -129t184 -46q150 0 241 100t91 264t-92.5 265.5t-241.5 101.5 q-102 0 -182 -47t-125.5 -130t-45.5 -190z" />
<glyph unicode="e" horiz-adv-x="1101" d="M82 483q0 141 65.5 254t177 179.5t253.5 66.5q131 0 232 -60.5t159.5 -165t58.5 -241.5q0 -31 -10 -88h-789q16 -143 114.5 -228t248.5 -85q86 0 159.5 31.5t127.5 95.5l92 -95q-68 -80 -168 -123.5t-213 -43.5q-145 0 -260 65.5t-181.5 179t-66.5 258.5zM229 551h658 q-10 137 -93.5 218t-220.5 81q-141 0 -233 -82t-111 -217z" />
<glyph unicode="f" horiz-adv-x="808" d="M45 834v129h242v163q0 100 44 178t122.5 122t179.5 44q78 0 137 -27.5t109 -76.5l-95 -94q-63 63 -151 63q-96 0 -148.5 -57t-52.5 -156v-159h322v-129h-322v-834h-145v834h-242z" />
<glyph unicode="g" horiz-adv-x="1191" d="M84 498q0 137 60.5 247.5t167 174t239.5 63.5q117 0 209 -48t145 -132v160h144v-924q0 -139 -63.5 -243.5t-177.5 -163t-265 -58.5q-145 0 -259 53.5t-184 153.5l95 94q55 -78 143 -121t209 -43q164 0 261 88t97 240v154q-53 -86 -144 -134.5t-208 -48.5 q-135 0 -241.5 63.5t-167 174t-60.5 250.5zM231 498q0 -102 44 -182t123.5 -124.5t181.5 -44.5q150 0 241.5 95.5t91.5 255.5q0 156 -93 253t-242 97q-102 0 -180.5 -45t-122.5 -124t-44 -181z" />
<glyph unicode="h" horiz-adv-x="1114" d="M145 0v1450h144v-629q51 74 135 118t188 44q111 0 196 -50t134 -139t49 -204v-590h-143v565q0 127 -76 206t-199 79q-125 0 -204.5 -80t-79.5 -203v-567h-144z" />
<glyph unicode="i" horiz-adv-x="436" d="M119 1272q0 43 27.5 71.5t70.5 28.5t71.5 -28.5t28.5 -71.5t-28.5 -72t-71.5 -29t-70.5 29t-27.5 72zM145 0v963h146v-963h-146z" />
<glyph unicode="j" horiz-adv-x="446" d="M-258 -315l94 94q59 -70 154 -70q68 0 117 41t49 129v1084h145v-1082q0 -102 -43 -169.5t-111.5 -102.5t-150.5 -35q-84 0 -145.5 27.5t-108.5 83.5zM131 1272q0 43 27.5 71.5t70.5 28.5t72 -28.5t29 -71.5t-29 -72t-72 -29t-70.5 29t-27.5 72z" />
<glyph unicode="k" horiz-adv-x="991" d="M145 0v1450h144v-942l469 455h178l-483 -465l501 -498h-188l-477 477v-477h-144z" />
<glyph unicode="l" horiz-adv-x="434" d="M145 0v1450h144v-1450h-144z" />
<glyph unicode="m" horiz-adv-x="1736" d="M145 0v963h144v-132q49 72 129 112t176 40q106 0 190 -49t129 -137q49 88 137.5 137t194.5 49q102 0 185 -45t132.5 -128t49.5 -194v-616h-144v590q0 119 -72.5 189.5t-181.5 70.5q-98 0 -171.5 -55.5t-90.5 -151.5q2 -12 2 -27v-616h-145v590q0 119 -71.5 189.5 t-180.5 70.5q-111 0 -188.5 -69.5t-77.5 -188.5h-2v-592h-144z" />
<glyph unicode="n" horiz-adv-x="1114" d="M145 0v963h144v-142q51 74 135 118t188 44q111 0 196 -54.5t134 -143.5t49 -195v-590h-143v565q0 127 -76 206t-199 79q-125 0 -204.5 -80t-79.5 -203v-567h-144z" />
<glyph unicode="o" horiz-adv-x="1163" d="M82 485q0 139 66.5 252t179 179.5t254.5 66.5q139 0 252.5 -66.5t180 -179t66.5 -252.5q0 -143 -66.5 -257.5t-179 -181t-253.5 -66.5q-139 0 -253 67.5t-180.5 182t-66.5 255.5zM231 485q0 -106 45.5 -189t125.5 -130t180 -47q102 0 181 47t125 130t46 189 q0 104 -46 185.5t-126 128.5t-180 47t-180 -47t-125.5 -129t-45.5 -185z" />
<glyph unicode="p" horiz-adv-x="1198" d="M145 -406v1369h144v-162q55 84 148 133t206 49q133 0 239.5 -66.5t169 -180t62.5 -257.5q0 -141 -62.5 -253.5t-169 -179t-239.5 -66.5q-117 0 -209 49t-145 133v-568h-144zM281 481q0 -109 43 -190.5t118.5 -127.5t175.5 -46t179.5 46t124.5 129t45 189t-45 189.5 t-123 130.5t-178 47t-177 -47t-120 -130t-43 -190z" />
<glyph unicode="q" horiz-adv-x="1198" d="M84 479q0 141 63.5 256t171 181.5t242.5 66.5q115 0 205 -48t143 -132v160h144v-1369h-144v566q-51 -84 -141 -132t-205 -48q-135 0 -243.5 66.5t-172 179t-63.5 253.5zM233 481q0 -106 45.5 -189t125.5 -129t182 -46q150 0 241 100t91 264t-92.5 265.5t-241.5 101.5 q-102 0 -181 -47t-124.5 -130t-45.5 -190z" />
<glyph unicode="r" horiz-adv-x="847" d="M145 0v963h144v-127q43 70 112.5 108.5t161.5 38.5q70 0 130.5 -25.5t111.5 -80.5l-94 -101q-70 72 -172 72q-111 0 -180.5 -73t-69.5 -214v-561h-144z" />
<glyph unicode="s" horiz-adv-x="868" d="M59 154l93 94q111 -137 292 -137q94 0 149.5 36.5t55.5 102.5q0 61 -39 95t-99 55.5t-129 41t-129 49t-98 82t-38 140.5q0 123 88 196.5t244 73.5q109 0 195.5 -39t141.5 -115l-92 -92q-90 115 -252 115q-92 0 -140 -36t-48 -93q0 -55 39 -87t99.5 -52.5t128 -40t128 -50 t99 -86t38.5 -145.5q0 -131 -94 -206.5t-252 -75.5q-119 0 -218 47t-163 127z" />
<glyph unicode="t" horiz-adv-x="733" d="M51 834v129h244v405h145v-405h242v-129h-242v-834h-145v834h-244z" />
<glyph unicode="u" horiz-adv-x="1054" d="M121 403v560h145v-553q0 -133 71 -213t189 -80q121 0 191.5 78.5t70.5 214.5v553h144v-560q0 -127 -51.5 -222t-142.5 -148t-212 -53q-119 0 -210 53t-143 149.5t-52 220.5z" />
<glyph unicode="v" horiz-adv-x="1048" d="M37 963h160l329 -742l332 742h156l-449 -963h-84z" />
<glyph unicode="w" horiz-adv-x="1527" d="M43 963h150l266 -727l264 727h84l262 -727l266 727h152l-373 -963h-84l-266 707l-264 -707h-86z" />
<glyph unicode="x" horiz-adv-x="1021" d="M45 0l379 496l-363 467h179l276 -367l275 367h170l-359 -465l375 -498h-176l-291 395l-295 -395h-170z" />
<glyph unicode="y" horiz-adv-x="1044" d="M45 963h158l311 -738l328 738h159l-452 -967l-187 -402h-157l229 476z" />
<glyph unicode="z" horiz-adv-x="905" d="M61 0v80l570 754h-535v129h744v-78l-570 -754h557v-131h-766z" />
<glyph unicode="{" horiz-adv-x="655" d="M72 575v111h57q115 0 96 166l-26 235q-20 182 57.5 272.5t224.5 90.5h92v-115h-75q-98 0 -144.5 -55t-29.5 -184l22 -226q8 -88 -12.5 -147t-83.5 -94q63 -33 83.5 -92.5t12.5 -147.5l-22 -229q-14 -131 30.5 -186.5t143.5 -55.5h75v-115h-92q-147 0 -225 90.5t-57 274.5 l26 242q18 166 -96 165h-57z" />
<glyph unicode="|" horiz-adv-x="563" d="M215 -266v1818h133v-1818h-133z" />
<glyph unicode="}" horiz-adv-x="655" d="M82 -82h76q98 0 142 55.5t32 186.5l-23 229q-8 88 12.5 147.5t81.5 92.5q-61 35 -81.5 94t-12.5 147l23 226q14 129 -31 184t-143 55h-76v115h92q147 0 225 -90t58 -273l-27 -235q-18 -166 96 -166h58v-111h-58q-115 0 -96 -165l27 -242q18 -184 -59 -274.5t-224 -90.5 h-92v115z" />
<glyph unicode="~" horiz-adv-x="1091" d="M117 674q45 63 106.5 99t149.5 36q76 0 132 -23.5t106.5 -46t111.5 -22.5q53 0 94 20.5t76 59.5l82 -80q-45 -66 -106.5 -100.5t-141.5 -34.5q-72 0 -125 22.5t-106.5 46t-120.5 23.5q-59 0 -101.5 -21.5t-74.5 -60.5z" />
<glyph unicode="&#xa1;" horiz-adv-x="540" d="M154 866q0 49 31.5 83t82.5 34t84 -34t33 -83t-33 -82.5t-84 -33.5t-82.5 33.5t-31.5 82.5zM193 -406l22 943h113l22 -943h-157z" />
<glyph unicode="&#xa2;" horiz-adv-x="1052" d="M102 707q2 127 56.5 233.5t151 175t218.5 84.5v189h109v-183q203 -12 332 -155l-97 -97q-90 100 -235 113v-725q147 12 240 115l94 -97q-129 -143 -334 -157v-183h-109v189q-123 16 -219 86t-150.5 176.5t-56.5 235.5zM252 707q0 -139 77 -236.5t199 -122.5v713 q-123 -25 -199.5 -121t-76.5 -233z" />
<glyph unicode="&#xa3;" horiz-adv-x="1263" d="M143 0v137h203v479h-203v123h203v258q0 135 55.5 232.5t151.5 149t215 51.5q139 0 228 -55.5t141 -129.5l-101 -100q-49 66 -111.5 105.5t-160.5 39.5q-113 0 -189.5 -72.5t-76.5 -207.5v-271h424v-123h-424v-479h610v-137h-965z" />
<glyph unicode="&#xa5;" horiz-adv-x="1325" d="M137 1409h174l353 -651l354 651h172l-270 -463h223v-121h-293l-111 -192v-45h404v-121h-404v-467h-151v467h-406v121h406v37l-115 200h-291v121h221z" />
<glyph unicode="&#xad;" d="M145 451v137h654v-137h-654z" />
<glyph unicode="&#xbf;" horiz-adv-x="1011" d="M119 -37q0 152 89 255.5t236 133.5l11 185h123l4 -301l-54 -3q-117 -2 -188.5 -73.5t-71.5 -188.5q0 -109 72 -182.5t188 -73.5q106 0 181 51.5t120 137.5l107 -92q-59 -109 -166 -173.5t-248 -64.5q-119 0 -210 50t-142 138t-51 201zM403 866q0 49 32 83t83 34t84 -34 t33 -83t-33 -82.5t-84 -33.5t-83 33.5t-32 82.5z" />
<glyph unicode="&#x2000;" horiz-adv-x="807" />
<glyph unicode="&#x2001;" horiz-adv-x="1614" />
<glyph unicode="&#x2002;" horiz-adv-x="807" />
<glyph unicode="&#x2003;" horiz-adv-x="1614" />
<glyph unicode="&#x2004;" horiz-adv-x="538" />
<glyph unicode="&#x2005;" horiz-adv-x="403" />
<glyph unicode="&#x2006;" horiz-adv-x="269" />
<glyph unicode="&#x2007;" horiz-adv-x="269" />
<glyph unicode="&#x2008;" horiz-adv-x="201" />
<glyph unicode="&#x2009;" horiz-adv-x="322" />
<glyph unicode="&#x200a;" horiz-adv-x="89" />
<glyph unicode="&#x2010;" d="M145 451v137h654v-137h-654z" />
<glyph unicode="&#x2011;" d="M145 451v137h654v-137h-654z" />
<glyph unicode="&#x2012;" d="M145 451v137h654v-137h-654z" />
<glyph unicode="&#x2013;" horiz-adv-x="1116" d="M145 459v123h826v-123h-826z" />
<glyph unicode="&#x2014;" horiz-adv-x="1726" d="M145 461v119h1430v-119h-1430z" />
<glyph unicode="&#x2018;" horiz-adv-x="503" d="M123 1118q0 20 7 48t30 73l121 231l88 -47l-101 -196q35 -4 63.5 -34t28.5 -75q0 -49 -35.5 -85t-84.5 -36q-47 0 -82 35t-35 86z" />
<glyph unicode="&#x2019;" horiz-adv-x="503" d="M137 1006l99 194q-35 4 -63 34t-28 75q0 49 35 85t84 36q47 0 83 -35t36 -86q0 -20 -8 -48t-29 -71l-123 -232z" />
<glyph unicode="&#x201c;" horiz-adv-x="839" d="M123 1118q0 20 7 48t30 73l121 231l88 -47l-101 -196q35 -4 63.5 -34t28.5 -75q0 -49 -35.5 -85t-84.5 -36q-47 0 -82 35t-35 86zM459 1118q0 20 7 48t30 73l120 231l89 -47l-101 -196q35 -4 63.5 -34t28.5 -75q0 -49 -35.5 -85t-85.5 -36q-47 0 -81.5 35t-34.5 86z" />
<glyph unicode="&#x201d;" horiz-adv-x="839" d="M137 1006l99 194q-35 4 -63 34t-28 75q0 49 35 85t84 36q47 0 83 -35t36 -86q0 -20 -8 -48t-29 -71l-123 -232zM473 1006l98 194q-35 4 -62.5 34t-27.5 75q0 49 35 85t84 36q47 0 83 -35t36 -86q0 -20 -8.5 -48t-28.5 -71l-123 -232z" />
<glyph unicode="&#x202f;" horiz-adv-x="322" />
<glyph unicode="&#x205f;" horiz-adv-x="403" />
<glyph unicode="&#x20ac;" horiz-adv-x="1495" d="M57 467v121h144q-6 57 -8 119q0 59 8 118h-144v121h170q43 141 132.5 251t218.5 171.5t286 61.5q158 0 277 -57.5t215 -158.5l-103 -102q-74 82 -170 129t-223 47q-174 0 -297 -93t-178 -249h639l-39 -121h-631q-8 -59 -8 -118q0 -61 8 -119h586l-39 -121h-516 q53 -158 179 -252t302 -94q129 0 226.5 48t171.5 132l102 -104q-94 -100 -217 -158.5t-281 -58.5q-160 0 -288.5 62t-219 172t-133.5 253h-170z" />
<glyph unicode="&#x25fc;" horiz-adv-x="962" d="M0 0v963h963v-963h-963z" />
</font>
</defs>
</svg>
