<?xml version="1.0" encoding="UTF-8"?><svg id="Calque_2" xmlns="http://www.w3.org/2000/svg" viewBox="0 0 612.51 111.15"><defs><style>.cls-1{fill:#fff;}</style></defs><g id="Calque_1-2"><g><polygon class="cls-1" points="589.02 66.53 612.51 66.53 612.51 37.21 589.02 66.53"/><path class="cls-1" d="m559.65,58.53L606.67.79h-44.43v25.38l-24.75,18.6c9.75,2.6,17.46,7.03,22.16,13.76Z"/><path class="cls-1" d="m536.57,111.15h75.94v-19.08h-51.29c-4.68,9.38-13.66,15.85-24.65,19.08Z"/><path class="cls-1" d="m514.62,65.12h-15.61l-4.89-16.4,24.28-19.24h-40.33s-.01,0-.02,0,0,0-.01,0h-.63v-.05s-.05,0-.07,0c-1.5-6.37-4.5-11.57-8.95-16.03-7.73-7.72-20.18-12.61-39.73-12.61h-147.37v18.1c-7.98-12.06-23.59-18.1-43.5-18.1h-49.66v90.06L150.11,0h-36.58l-14.75,35.26C96.45,12.28,77.14.79,49.66.79H0v110.37h36.89v-29.96h11.98c13.95,0,25.82-3.11,34.51-9.15l-16.36,39.1h39.42l5.68-14.82h38.63l5.83,14.82h68.44v-29.96h11.98c20.31,0,36.21-6.6,44.29-19.22v49.18h130.34v-31.53h9.3l20.81,31.53h57.33c-10-2.5-18.35-6.9-25.46-12.85l-2.46-3.59,20.91-22.22c7.73,6.82,15.88,10.6,24.44,10.6s12.61-3.63,12.61-8.83v-.31c0-5.36-4.73-8.83-14.51-8.83ZM62.59,42.73c0,7.88-6.31,12.14-15.77,12.14h-9.93v-24.6h10.09c9.78,0,15.61,4.1,15.61,12.14v.32Zm58.82,27.43l10.09-26.8,10.09,26.8h-20.18Zm129.3-27.43c0,7.88-6.31,12.14-15.77,12.14h-9.93v-24.6h10.09c9.78,0,15.61,4.1,15.61,12.14v.32Zm66.83,38.15v-14.22h44.17v-22.17h-44.17v-13.43h57.19v49.82h-57.19Zm124.19-38.31c0,6.78-5.36,10.72-14.19,10.72h-15.92v-21.6h16.08c8.51,0,14.03,3.47,14.03,10.56v.31Z"/></g></g></svg>